Interstate-Condensed_Thin.ufo
<glyph name="exclam" format="1">
  <advance width="172"/>
  <unicode hex="0021"/>
  <outline>
    <contour>
      <point x="80" y="139" type="line"/>
      <point x="76" y="366" type="line"/>
      <point x="76" y="700" type="line"/>
      <point x="96" y="700" type="line"/>
      <point x="96" y="366" type="line"/>
      <point x="92" y="139" type="line"/>
    </contour>
    <contour>
      <point x="86" y="-3" type="curve" smooth="yes"/>
      <point x="73" y="-3"/>
      <point x="63" y="7"/>
      <point x="63" y="20" type="curve" smooth="yes"/>
      <point x="63" y="33"/>
      <point x="73" y="44"/>
      <point x="86" y="44" type="curve" smooth="yes"/>
      <point x="98" y="44"/>
      <point x="109" y="33"/>
      <point x="109" y="20" type="curve" smooth="yes"/>
      <point x="109" y="7"/>
      <point x="98" y="-3"/>
    </contour>
  </outline>
</glyph>
<glyph name="quotedbl" format="1">
  <advance width="300"/>
  <unicode hex="0022"/>
  <outline>
    <contour>
      <point x="210" y="469" type="line"/>
      <point x="206" y="700" type="line"/>
      <point x="229" y="700" type="line"/>
      <point x="225" y="469" type="line"/>
    </contour>
    <contour>
      <point x="75" y="469" type="line"/>
      <point x="71" y="700" type="line"/>
      <point x="94" y="700" type="line"/>
      <point x="90" y="469" type="line"/>
    </contour>
  </outline>
</glyph>
<glyph name="numbersign" format="1">
  <advance width="464"/>
  <unicode hex="0023"/>
  <outline>
    <contour>
      <point x="124" y="0" type="line"/>
      <point x="124" y="203" type="line"/>
      <point x="33" y="203" type="line"/>
      <point x="33" y="221" type="line"/>
      <point x="124" y="221" type="line"/>
      <point x="124" y="479" type="line"/>
      <point x="33" y="479" type="line"/>
      <point x="33" y="497" type="line"/>
      <point x="124" y="497" type="line"/>
      <point x="124" y="700" type="line"/>
      <point x="144" y="700" type="line"/>
      <point x="144" y="497" type="line"/>
      <point x="320" y="497" type="line"/>
      <point x="320" y="700" type="line"/>
      <point x="340" y="700" type="line"/>
      <point x="340" y="497" type="line"/>
      <point x="430" y="497" type="line"/>
      <point x="430" y="479" type="line"/>
      <point x="340" y="479" type="line"/>
      <point x="340" y="221" type="line"/>
      <point x="430" y="221" type="line"/>
      <point x="430" y="203" type="line"/>
      <point x="340" y="203" type="line"/>
      <point x="340" y="0" type="line"/>
      <point x="320" y="0" type="line"/>
      <point x="320" y="203" type="line"/>
      <point x="144" y="203" type="line"/>
      <point x="144" y="0" type="line"/>
    </contour>
    <contour>
      <point x="144" y="221" type="line"/>
      <point x="320" y="221" type="line"/>
      <point x="320" y="479" type="line"/>
      <point x="144" y="479" type="line"/>
    </contour>
  </outline>
</glyph>
<glyph name="dollar" format="1">
  <advance width="385"/>
  <unicode hex="0024"/>
  <outline>
    <contour>
      <point x="178" y="-79" type="line"/>
      <point x="178" y="-8" type="line"/>
      <point x="112" y="-2"/>
      <point x="69" y="34"/>
      <point x="41" y="117" type="curve"/>
      <point x="60" y="124" type="line"/>
      <point x="86" y="47"/>
      <point x="126" y="11"/>
      <point x="190" y="11" type="curve" smooth="yes"/>
      <point x="263" y="11"/>
      <point x="316" y="62"/>
      <point x="316" y="154" type="curve" smooth="yes"/>
      <point x="316" y="240"/>
      <point x="292" y="284"/>
      <point x="184" y="362" type="curve" smooth="yes"/>
      <point x="79" y="438"/>
      <point x="51" y="482"/>
      <point x="51" y="560" type="curve" smooth="yes"/>
      <point x="51" y="643"/>
      <point x="97" y="702"/>
      <point x="178" y="708" type="curve"/>
      <point x="178" y="779" type="line"/>
      <point x="198" y="779" type="line"/>
      <point x="198" y="708" type="line"/>
      <point x="261" y="704"/>
      <point x="302" y="670"/>
      <point x="330" y="601" type="curve"/>
      <point x="313" y="592" type="line"/>
      <point x="285" y="658"/>
      <point x="248" y="689"/>
      <point x="188" y="689" type="curve" smooth="yes"/>
      <point x="111" y="689"/>
      <point x="71" y="634"/>
      <point x="71" y="560" type="curve" smooth="yes"/>
      <point x="71" y="493"/>
      <point x="96" y="452"/>
      <point x="196" y="379" type="curve" smooth="yes"/>
      <point x="306" y="299"/>
      <point x="336" y="254"/>
      <point x="336" y="154" type="curve" smooth="yes"/>
      <point x="336" y="53"/>
      <point x="279" y="-3"/>
      <point x="198" y="-8" type="curve"/>
      <point x="198" y="-79" type="line"/>
    </contour>
  </outline>
</glyph>
<glyph name="percent" format="1">
  <advance width="616"/>
  <unicode hex="0025"/>
  <outline>
    <contour>
      <point x="147" y="317" type="curve" smooth="yes"/>
      <point x="80" y="317"/>
      <point x="41" y="388"/>
      <point x="41" y="512" type="curve" smooth="yes"/>
      <point x="41" y="636"/>
      <point x="81" y="709"/>
      <point x="148" y="709" type="curve" smooth="yes"/>
      <point x="215" y="709"/>
      <point x="255" y="636"/>
      <point x="255" y="512" type="curve" smooth="yes"/>
      <point x="255" y="388"/>
      <point x="214" y="317"/>
    </contour>
    <contour>
      <point x="126" y="0" type="line"/>
      <point x="472" y="700" type="line"/>
      <point x="491" y="700" type="line"/>
      <point x="145" y="0" type="line"/>
    </contour>
    <contour>
      <point x="468" y="-9" type="curve" smooth="yes"/>
      <point x="401" y="-9"/>
      <point x="362" y="62"/>
      <point x="362" y="186" type="curve" smooth="yes"/>
      <point x="362" y="310"/>
      <point x="402" y="383"/>
      <point x="469" y="383" type="curve" smooth="yes"/>
      <point x="536" y="383"/>
      <point x="576" y="310"/>
      <point x="576" y="186" type="curve" smooth="yes"/>
      <point x="576" y="62"/>
      <point x="535" y="-9"/>
    </contour>
    <contour>
      <point x="147" y="334" type="curve" smooth="yes"/>
      <point x="205" y="334"/>
      <point x="237" y="402"/>
      <point x="237" y="512" type="curve" smooth="yes"/>
      <point x="237" y="622"/>
      <point x="206" y="692"/>
      <point x="148" y="692" type="curve" smooth="yes"/>
      <point x="90" y="692"/>
      <point x="59" y="622"/>
      <point x="59" y="512" type="curve" smooth="yes"/>
      <point x="59" y="402"/>
      <point x="89" y="334"/>
    </contour>
    <contour>
      <point x="468" y="8" type="curve" smooth="yes"/>
      <point x="526" y="8"/>
      <point x="558" y="76"/>
      <point x="558" y="186" type="curve" smooth="yes"/>
      <point x="558" y="296"/>
      <point x="527" y="366"/>
      <point x="469" y="366" type="curve" smooth="yes"/>
      <point x="411" y="366"/>
      <point x="380" y="296"/>
      <point x="380" y="186" type="curve" smooth="yes"/>
      <point x="380" y="76"/>
      <point x="410" y="8"/>
    </contour>
  </outline>
</glyph>
<glyph name="ampersand" format="1">
  <advance width="429"/>
  <unicode hex="0026"/>
  <outline>
    <contour>
      <point x="169" y="-9" type="curve" smooth="yes"/>
      <point x="88" y="-9"/>
      <point x="43" y="59"/>
      <point x="43" y="150" type="curve" smooth="yes"/>
      <point x="43" y="228"/>
      <point x="80" y="323"/>
      <point x="159" y="397" type="curve"/>
      <point x="139" y="436" type="line" smooth="yes"/>
      <point x="107" y="498"/>
      <point x="92" y="537"/>
      <point x="92" y="590" type="curve" smooth="yes"/>
      <point x="92" y="664"/>
      <point x="136" y="709"/>
      <point x="201" y="709" type="curve" smooth="yes"/>
      <point x="281" y="709"/>
      <point x="314" y="643"/>
      <point x="328" y="607" type="curve"/>
      <point x="312" y="597" type="line"/>
      <point x="296" y="635"/>
      <point x="267" y="691"/>
      <point x="201" y="691" type="curve" smooth="yes"/>
      <point x="146" y="691"/>
      <point x="112" y="653"/>
      <point x="112" y="592" type="curve" smooth="yes"/>
      <point x="112" y="547"/>
      <point x="124" y="506"/>
      <point x="157" y="442" type="curve" smooth="yes"/>
      <point x="313" y="145" type="line"/>
      <point x="337" y="204"/>
      <point x="355" y="276"/>
      <point x="367" y="347" type="curve"/>
      <point x="385" y="343" type="line"/>
      <point x="371" y="265"/>
      <point x="352" y="188"/>
      <point x="324" y="125" type="curve"/>
      <point x="389" y="0" type="line"/>
      <point x="368" y="0" type="line"/>
      <point x="314" y="104" type="line"/>
      <point x="279" y="36"/>
      <point x="233" y="-9"/>
    </contour>
    <contour>
      <point x="169" y="9" type="curve" smooth="yes"/>
      <point x="228" y="9"/>
      <point x="271" y="55"/>
      <point x="303" y="123" type="curve"/>
      <point x="169" y="380" type="line"/>
      <point x="96" y="312"/>
      <point x="63" y="223"/>
      <point x="63" y="150" type="curve" smooth="yes"/>
      <point x="63" y="71"/>
      <point x="100" y="9"/>
    </contour>
  </outline>
</glyph>
<glyph name="quotesingle" format="1">
  <advance width="165"/>
  <unicode hex="0027"/>
  <outline>
    <contour>
      <point x="75" y="469" type="line"/>
      <point x="71" y="700" type="line"/>
      <point x="94" y="700" type="line"/>
      <point x="90" y="469" type="line"/>
    </contour>
  </outline>
</glyph>
<glyph name="parenleft" format="1">
  <advance width="246"/>
  <unicode hex="0028"/>
  <outline>
    <contour>
      <point x="184" y="-111" type="line"/>
      <point x="109" y="-1"/>
      <point x="55" y="135"/>
      <point x="55" y="301" type="curve" smooth="yes"/>
      <point x="55" y="473"/>
      <point x="105" y="604"/>
      <point x="184" y="716" type="curve"/>
      <point x="196" y="707" type="line"/>
      <point x="121" y="598"/>
      <point x="75" y="469"/>
      <point x="75" y="302" type="curve" smooth="yes"/>
      <point x="75" y="139"/>
      <point x="125" y="5"/>
      <point x="196" y="-102" type="curve"/>
    </contour>
  </outline>
</glyph>
<glyph name="parenright" format="1">
  <advance width="246"/>
  <unicode hex="0029"/>
  <outline>
    <contour>
      <point x="61" y="-111" type="curve"/>
      <point x="49" y="-102" type="line"/>
      <point x="124" y="6"/>
      <point x="170" y="136"/>
      <point x="170" y="303" type="curve" smooth="yes"/>
      <point x="170" y="466"/>
      <point x="120" y="600"/>
      <point x="49" y="707" type="curve"/>
      <point x="62" y="716" type="line"/>
      <point x="136" y="606"/>
      <point x="190" y="471"/>
      <point x="190" y="304" type="curve" smooth="yes"/>
      <point x="190" y="131"/>
      <point x="140" y="0"/>
    </contour>
  </outline>
</glyph>
<glyph name="asterisk" format="1">
  <advance width="352"/>
  <unicode hex="002A"/>
  <outline>
    <contour>
      <point x="168" y="402" type="line"/>
      <point x="171" y="543" type="line"/>
      <point x="53" y="469" type="line"/>
      <point x="43" y="485" type="line"/>
      <point x="165" y="551" type="line"/>
      <point x="43" y="617" type="line"/>
      <point x="53" y="633" type="line"/>
      <point x="171" y="560" type="line"/>
      <point x="168" y="700" type="line"/>
      <point x="186" y="700" type="line"/>
      <point x="182" y="560" type="line"/>
      <point x="300" y="633" type="line"/>
      <point x="309" y="617" type="line"/>
      <point x="188" y="551" type="line"/>
      <point x="309" y="485" type="line"/>
      <point x="300" y="469" type="line"/>
      <point x="182" y="543" type="line"/>
      <point x="186" y="402" type="line"/>
    </contour>
  </outline>
</glyph>
<glyph name="plus" format="1">
  <advance width="386"/>
  <unicode hex="002B"/>
  <outline>
    <contour>
      <point x="184" y="166" type="line"/>
      <point x="184" y="335" type="line"/>
      <point x="33" y="335" type="line"/>
      <point x="33" y="353" type="line"/>
      <point x="184" y="353" type="line"/>
      <point x="184" y="522" type="line"/>
      <point x="203" y="522" type="line"/>
      <point x="203" y="353" type="line"/>
      <point x="352" y="353" type="line"/>
      <point x="352" y="335" type="line"/>
      <point x="203" y="335" type="line"/>
      <point x="203" y="166" type="line"/>
    </contour>
  </outline>
</glyph>
<glyph name="comma" format="1">
  <advance width="124"/>
  <unicode hex="002C"/>
  <outline>
    <contour>
      <point x="37" y="-77" type="line"/>
      <point x="54" y="67" type="line"/>
      <point x="77" y="67" type="line"/>
      <point x="51" y="-77" type="line"/>
    </contour>
  </outline>
</glyph>
<glyph name="hyphen" format="1">
  <advance width="244"/>
  <unicode hex="002D"/>
  <unicode hex="2010"/>
  <unicode hex="2011"/>
  <outline>
    <contour>
      <point x="35" y="354" type="line"/>
      <point x="35" y="374" type="line"/>
      <point x="209" y="374" type="line"/>
      <point x="209" y="354" type="line"/>
    </contour>
  </outline>
</glyph>
<glyph name="period" format="1">
  <advance width="124"/>
  <unicode hex="002E"/>
  <outline>
    <contour>
      <point x="62" y="-3" type="curve" smooth="yes"/>
      <point x="49" y="-3"/>
      <point x="39" y="7"/>
      <point x="39" y="20" type="curve" smooth="yes"/>
      <point x="39" y="33"/>
      <point x="49" y="44"/>
      <point x="62" y="44" type="curve" smooth="yes"/>
      <point x="74" y="44"/>
      <point x="85" y="33"/>
      <point x="85" y="20" type="curve" smooth="yes"/>
      <point x="85" y="7"/>
      <point x="74" y="-3"/>
    </contour>
  </outline>
</glyph>
<glyph name="slash" format="1">
  <advance width="265"/>
  <unicode hex="002F"/>
  <outline>
    <contour>
      <point x="15" y="-90" type="line"/>
      <point x="231" y="790" type="line"/>
      <point x="249" y="790" type="line"/>
      <point x="34" y="-90" type="line"/>
    </contour>
  </outline>
</glyph>
<glyph name="zero" format="1">
  <advance width="446"/>
  <unicode hex="0030"/>
  <outline>
    <contour>
      <point x="223" y="-9" type="curve" smooth="yes"/>
      <point x="117" y="-9"/>
      <point x="52" y="101"/>
      <point x="52" y="350" type="curve" smooth="yes"/>
      <point x="52" y="599"/>
      <point x="117" y="709"/>
      <point x="223" y="709" type="curve" smooth="yes"/>
      <point x="329" y="709"/>
      <point x="394" y="599"/>
      <point x="394" y="350" type="curve" smooth="yes"/>
      <point x="394" y="101"/>
      <point x="329" y="-9"/>
    </contour>
    <contour>
      <point x="223" y="9" type="curve" smooth="yes"/>
      <point x="321" y="9"/>
      <point x="374" y="117"/>
      <point x="374" y="350" type="curve" smooth="yes"/>
      <point x="374" y="583"/>
      <point x="321" y="691"/>
      <point x="223" y="691" type="curve" smooth="yes"/>
      <point x="125" y="691"/>
      <point x="72" y="583"/>
      <point x="72" y="350" type="curve" smooth="yes"/>
      <point x="72" y="117"/>
      <point x="125" y="9"/>
    </contour>
  </outline>
</glyph>
<glyph name="one" format="1">
  <advance width="202"/>
  <unicode hex="0031"/>
  <outline>
    <contour>
      <point x="110" y="0" type="line"/>
      <point x="110" y="667" type="line"/>
      <point x="97" y="644"/>
      <point x="59" y="622"/>
      <point x="15" y="619" type="curve"/>
      <point x="15" y="636" type="line"/>
      <point x="60" y="639"/>
      <point x="99" y="664"/>
      <point x="113" y="703" type="curve"/>
      <point x="129" y="703" type="line"/>
      <point x="129" y="0" type="line"/>
    </contour>
  </outline>
</glyph>
<glyph name="two" format="1">
  <advance width="385"/>
  <unicode hex="0032"/>
  <outline>
    <contour>
      <point x="38" y="0" type="line"/>
      <point x="43" y="145"/>
      <point x="76" y="210"/>
      <point x="190" y="324" type="curve" smooth="yes"/>
      <point x="272" y="405"/>
      <point x="310" y="456"/>
      <point x="310" y="545" type="curve" smooth="yes"/>
      <point x="310" y="633"/>
      <point x="271" y="691"/>
      <point x="195" y="691" type="curve" smooth="yes"/>
      <point x="122" y="691"/>
      <point x="88" y="631"/>
      <point x="67" y="579" type="curve"/>
      <point x="50" y="586" type="line"/>
      <point x="73" y="645"/>
      <point x="113" y="709"/>
      <point x="195" y="709" type="curve" smooth="yes"/>
      <point x="284" y="709"/>
      <point x="330" y="647"/>
      <point x="330" y="545" type="curve" smooth="yes"/>
      <point x="330" y="449"/>
      <point x="286" y="390"/>
      <point x="199" y="307" type="curve" smooth="yes"/>
      <point x="107" y="219"/>
      <point x="62" y="139"/>
      <point x="59" y="20" type="curve"/>
      <point x="334" y="20" type="line"/>
      <point x="334" y="0" type="line"/>
    </contour>
  </outline>
</glyph>
<glyph name="three" format="1">
  <advance width="373"/>
  <unicode hex="0033"/>
  <outline>
    <contour>
      <point x="173" y="-9" type="curve" smooth="yes"/>
      <point x="109" y="-9"/>
      <point x="55" y="30"/>
      <point x="31" y="109" type="curve"/>
      <point x="49" y="116" type="line"/>
      <point x="70" y="47"/>
      <point x="116" y="9"/>
      <point x="173" y="9" type="curve" smooth="yes"/>
      <point x="258" y="9"/>
      <point x="306" y="82"/>
      <point x="306" y="189" type="curve" smooth="yes"/>
      <point x="306" y="323"/>
      <point x="237" y="366"/>
      <point x="163" y="366" type="curve" smooth="yes"/>
      <point x="155" y="366"/>
      <point x="148" y="365"/>
      <point x="141" y="366" type="curve"/>
      <point x="141" y="385" type="line"/>
      <point x="148" y="385"/>
      <point x="156" y="385"/>
      <point x="163" y="385" type="curve" smooth="yes"/>
      <point x="266" y="385"/>
      <point x="292" y="472"/>
      <point x="292" y="545" type="curve" smooth="yes"/>
      <point x="292" y="631"/>
      <point x="248" y="691"/>
      <point x="175" y="691" type="curve" smooth="yes"/>
      <point x="112" y="691"/>
      <point x="80" y="647"/>
      <point x="60" y="589" type="curve"/>
      <point x="42" y="596" type="line"/>
      <point x="64" y="659"/>
      <point x="104" y="709"/>
      <point x="175" y="709" type="curve" smooth="yes"/>
      <point x="259" y="709"/>
      <point x="312" y="645"/>
      <point x="312" y="545" type="curve" smooth="yes"/>
      <point x="312" y="454"/>
      <point x="277" y="388"/>
      <point x="204" y="376" type="curve"/>
      <point x="265" y="370"/>
      <point x="326" y="319"/>
      <point x="326" y="189" type="curve" smooth="yes"/>
      <point x="326" y="68"/>
      <point x="268" y="-9"/>
    </contour>
  </outline>
</glyph>
<glyph name="four" format="1">
  <advance width="396"/>
  <unicode hex="0034"/>
  <outline>
    <contour>
      <point x="280" y="0" type="line"/>
      <point x="280" y="198" type="line"/>
      <point x="20" y="198" type="line"/>
      <point x="20" y="213" type="line"/>
      <point x="281" y="703" type="line"/>
      <point x="299" y="703" type="line"/>
      <point x="299" y="216" type="line"/>
      <point x="372" y="216" type="line"/>
      <point x="372" y="198" type="line"/>
      <point x="299" y="198" type="line"/>
      <point x="299" y="0" type="line"/>
    </contour>
    <contour>
      <point x="42" y="216" type="line"/>
      <point x="280" y="216" type="line"/>
      <point x="281" y="666" type="line"/>
    </contour>
  </outline>
</glyph>
<glyph name="five" format="1">
  <advance width="389"/>
  <unicode hex="0035"/>
  <outline>
    <contour>
      <point x="187" y="-9" type="curve" smooth="yes"/>
      <point x="111" y="-9"/>
      <point x="66" y="38"/>
      <point x="44" y="108" type="curve"/>
      <point x="63" y="115" type="line"/>
      <point x="83" y="53"/>
      <point x="123" y="9"/>
      <point x="187" y="9" type="curve" smooth="yes"/>
      <point x="279" y="9"/>
      <point x="332" y="85"/>
      <point x="332" y="216" type="curve" smooth="yes"/>
      <point x="332" y="333"/>
      <point x="283" y="412"/>
      <point x="199" y="412" type="curve" smooth="yes"/>
      <point x="145" y="412"/>
      <point x="104" y="379"/>
      <point x="75" y="337" type="curve"/>
      <point x="57" y="342" type="line"/>
      <point x="75" y="700" type="line"/>
      <point x="331" y="700" type="line"/>
      <point x="331" y="680" type="line"/>
      <point x="94" y="680" type="line"/>
      <point x="76" y="363" type="line"/>
      <point x="98" y="395"/>
      <point x="140" y="430"/>
      <point x="199" y="430" type="curve" smooth="yes"/>
      <point x="295" y="430"/>
      <point x="352" y="347"/>
      <point x="352" y="216" type="curve" smooth="yes"/>
      <point x="352" y="71"/>
      <point x="290" y="-9"/>
    </contour>
  </outline>
</glyph>
<glyph name="six" format="1">
  <advance width="414"/>
  <unicode hex="0036"/>
  <outline>
    <contour>
      <point x="217" y="-9" type="curve" smooth="yes"/>
      <point x="112" y="-9"/>
      <point x="52" y="76"/>
      <point x="52" y="240" type="curve" smooth="yes"/>
      <point x="52" y="374"/>
      <point x="72" y="461"/>
      <point x="107" y="530" type="curve" smooth="yes"/>
      <point x="150" y="614"/>
      <point x="208" y="666"/>
      <point x="286" y="710" type="curve"/>
      <point x="295" y="692" type="line"/>
      <point x="217" y="648"/>
      <point x="167" y="604"/>
      <point x="125" y="522" type="curve" smooth="yes"/>
      <point x="96" y="465"/>
      <point x="79" y="400"/>
      <point x="73" y="313" type="curve"/>
      <point x="97" y="375"/>
      <point x="144" y="425"/>
      <point x="220" y="425" type="curve" smooth="yes"/>
      <point x="315" y="425"/>
      <point x="376" y="348"/>
      <point x="376" y="211" type="curve" smooth="yes"/>
      <point x="376" y="84"/>
      <point x="316" y="-9"/>
    </contour>
    <contour>
      <point x="217" y="9" type="curve" smooth="yes"/>
      <point x="304" y="9"/>
      <point x="356" y="97"/>
      <point x="356" y="211" type="curve" smooth="yes"/>
      <point x="356" y="334"/>
      <point x="305" y="405"/>
      <point x="220" y="405" type="curve" smooth="yes"/>
      <point x="146" y="405"/>
      <point x="91" y="348"/>
      <point x="71" y="256" type="curve"/>
      <point x="71" y="250"/>
      <point x="71" y="245"/>
      <point x="71" y="240" type="curve" smooth="yes"/>
      <point x="71" y="93"/>
      <point x="124" y="9"/>
    </contour>
  </outline>
</glyph>
<glyph name="seven" format="1">
  <advance width="359"/>
  <unicode hex="0037"/>
  <outline>
    <contour>
      <point x="128" y="0" type="line"/>
      <point x="132" y="305"/>
      <point x="192" y="514"/>
      <point x="301" y="681" type="curve"/>
      <point x="18" y="681" type="line"/>
      <point x="18" y="700" type="line"/>
      <point x="323" y="700" type="line"/>
      <point x="323" y="683" type="line"/>
      <point x="212" y="514"/>
      <point x="152" y="311"/>
      <point x="148" y="0" type="curve"/>
    </contour>
  </outline>
</glyph>
<glyph name="eight" format="1">
  <advance width="413"/>
  <unicode hex="0038"/>
  <outline>
    <contour>
      <point x="206" y="-9" type="curve" smooth="yes"/>
      <point x="109" y="-9"/>
      <point x="45" y="68"/>
      <point x="45" y="191" type="curve" smooth="yes"/>
      <point x="45" y="291"/>
      <point x="90" y="362"/>
      <point x="162" y="380" type="curve"/>
      <point x="101" y="397"/>
      <point x="61" y="460"/>
      <point x="61" y="540" type="curve" smooth="yes"/>
      <point x="61" y="638"/>
      <point x="120" y="709"/>
      <point x="207" y="709" type="curve" smooth="yes"/>
      <point x="294" y="709"/>
      <point x="353" y="638"/>
      <point x="353" y="540" type="curve" smooth="yes"/>
      <point x="353" y="460"/>
      <point x="313" y="397"/>
      <point x="251" y="380" type="curve"/>
      <point x="322" y="362"/>
      <point x="368" y="291"/>
      <point x="368" y="191" type="curve" smooth="yes"/>
      <point x="368" y="68"/>
      <point x="303" y="-9"/>
    </contour>
    <contour>
      <point x="207" y="388" type="curve" smooth="yes"/>
      <point x="282" y="388"/>
      <point x="333" y="452"/>
      <point x="333" y="540" type="curve" smooth="yes"/>
      <point x="333" y="626"/>
      <point x="282" y="691"/>
      <point x="207" y="691" type="curve" smooth="yes"/>
      <point x="132" y="691"/>
      <point x="81" y="626"/>
      <point x="81" y="540" type="curve" smooth="yes"/>
      <point x="81" y="452"/>
      <point x="132" y="388"/>
    </contour>
    <contour>
      <point x="206" y="9" type="curve" smooth="yes"/>
      <point x="291" y="9"/>
      <point x="348" y="82"/>
      <point x="348" y="191" type="curve" smooth="yes"/>
      <point x="348" y="299"/>
      <point x="291" y="370"/>
      <point x="206" y="370" type="curve" smooth="yes"/>
      <point x="121" y="370"/>
      <point x="65" y="299"/>
      <point x="65" y="191" type="curve" smooth="yes"/>
      <point x="65" y="82"/>
      <point x="121" y="9"/>
    </contour>
  </outline>
</glyph>
<glyph name="nine" format="1">
  <advance width="414"/>
  <unicode hex="0039"/>
  <outline>
    <contour>
      <point x="128" y="-10" type="curve"/>
      <point x="119" y="8" type="line"/>
      <point x="197" y="52"/>
      <point x="247" y="96"/>
      <point x="289" y="178" type="curve" smooth="yes"/>
      <point x="318" y="235"/>
      <point x="335" y="300"/>
      <point x="341" y="387" type="curve"/>
      <point x="317" y="325"/>
      <point x="270" y="275"/>
      <point x="194" y="275" type="curve" smooth="yes"/>
      <point x="99" y="275"/>
      <point x="38" y="352"/>
      <point x="38" y="489" type="curve" smooth="yes"/>
      <point x="38" y="616"/>
      <point x="98" y="709"/>
      <point x="197" y="709" type="curve" smooth="yes"/>
      <point x="302" y="709"/>
      <point x="362" y="624"/>
      <point x="362" y="460" type="curve" smooth="yes"/>
      <point x="362" y="326"/>
      <point x="342" y="239"/>
      <point x="307" y="170" type="curve" smooth="yes"/>
      <point x="264" y="86"/>
      <point x="206" y="34"/>
    </contour>
    <contour>
      <point x="194" y="295" type="curve" smooth="yes"/>
      <point x="268" y="295"/>
      <point x="323" y="352"/>
      <point x="343" y="444" type="curve"/>
      <point x="343" y="450"/>
      <point x="343" y="455"/>
      <point x="343" y="460" type="curve" smooth="yes"/>
      <point x="343" y="607"/>
      <point x="290" y="691"/>
      <point x="197" y="691" type="curve" smooth="yes"/>
      <point x="110" y="691"/>
      <point x="58" y="603"/>
      <point x="58" y="489" type="curve" smooth="yes"/>
      <point x="58" y="366"/>
      <point x="109" y="295"/>
    </contour>
  </outline>
</glyph>
<glyph name="colon" format="1">
  <advance width="124"/>
  <unicode hex="003A"/>
  <outline>
    <contour>
      <point x="62" y="457" type="curve" smooth="yes"/>
      <point x="49" y="457"/>
      <point x="39" y="467"/>
      <point x="39" y="480" type="curve" smooth="yes"/>
      <point x="39" y="493"/>
      <point x="49" y="504"/>
      <point x="62" y="504" type="curve" smooth="yes"/>
      <point x="74" y="504"/>
      <point x="85" y="493"/>
      <point x="85" y="480" type="curve" smooth="yes"/>
      <point x="85" y="467"/>
      <point x="74" y="457"/>
    </contour>
    <contour>
      <point x="62" y="-3" type="curve" smooth="yes"/>
      <point x="49" y="-3"/>
      <point x="39" y="7"/>
      <point x="39" y="20" type="curve" smooth="yes"/>
      <point x="39" y="33"/>
      <point x="49" y="44"/>
      <point x="62" y="44" type="curve" smooth="yes"/>
      <point x="74" y="44"/>
      <point x="85" y="33"/>
      <point x="85" y="20" type="curve" smooth="yes"/>
      <point x="85" y="7"/>
      <point x="74" y="-3"/>
    </contour>
  </outline>
</glyph>
<glyph name="semicolon" format="1">
  <advance width="124"/>
  <unicode hex="003B"/>
  <outline>
    <contour>
      <point x="62" y="457" type="curve" smooth="yes"/>
      <point x="49" y="457"/>
      <point x="39" y="467"/>
      <point x="39" y="480" type="curve" smooth="yes"/>
      <point x="39" y="493"/>
      <point x="49" y="504"/>
      <point x="62" y="504" type="curve" smooth="yes"/>
      <point x="74" y="504"/>
      <point x="85" y="493"/>
      <point x="85" y="480" type="curve" smooth="yes"/>
      <point x="85" y="467"/>
      <point x="74" y="457"/>
    </contour>
    <contour>
      <point x="31" y="-77" type="line"/>
      <point x="47" y="67" type="line"/>
      <point x="71" y="67" type="line"/>
      <point x="44" y="-77" type="line"/>
    </contour>
  </outline>
</glyph>
<glyph name="less" format="1">
  <advance width="281"/>
  <unicode hex="003C"/>
  <outline>
    <contour>
      <point x="230" y="134" type="line"/>
      <point x="32" y="337" type="line"/>
      <point x="32" y="351" type="line"/>
      <point x="230" y="554" type="line"/>
      <point x="232" y="531" type="line"/>
      <point x="49" y="344" type="line"/>
      <point x="232" y="157" type="line"/>
    </contour>
  </outline>
</glyph>
<glyph name="equal" format="1">
  <advance width="422"/>
  <unicode hex="003D"/>
  <outline>
    <contour>
      <point x="56" y="417" type="line"/>
      <point x="56" y="436" type="line"/>
      <point x="365" y="436" type="line"/>
      <point x="365" y="417" type="line"/>
    </contour>
    <contour>
      <point x="56" y="252" type="line"/>
      <point x="56" y="271" type="line"/>
      <point x="365" y="271" type="line"/>
      <point x="365" y="252" type="line"/>
    </contour>
  </outline>
</glyph>
<glyph name="greater" format="1">
  <advance width="281"/>
  <unicode hex="003E"/>
  <outline>
    <contour>
      <point x="52" y="134" type="line"/>
      <point x="50" y="157" type="line"/>
      <point x="232" y="344" type="line"/>
      <point x="50" y="531" type="line"/>
      <point x="52" y="554" type="line"/>
      <point x="249" y="351" type="line"/>
      <point x="249" y="337" type="line"/>
    </contour>
  </outline>
</glyph>
<glyph name="question" format="1">
  <advance width="369"/>
  <unicode hex="003F"/>
  <outline>
    <contour>
      <point x="158" y="141" type="line"/>
      <point x="158" y="275"/>
      <point x="170" y="321"/>
      <point x="220" y="382" type="curve" smooth="yes"/>
      <point x="269" y="441"/>
      <point x="297" y="487"/>
      <point x="297" y="561" type="curve" smooth="yes"/>
      <point x="297" y="640"/>
      <point x="253" y="691"/>
      <point x="186" y="691" type="curve" smooth="yes"/>
      <point x="110" y="691"/>
      <point x="75" y="629"/>
      <point x="55" y="574" type="curve"/>
      <point x="38" y="582" type="line"/>
      <point x="59" y="641"/>
      <point x="100" y="709"/>
      <point x="186" y="709" type="curve" smooth="yes"/>
      <point x="265" y="709"/>
      <point x="317" y="651"/>
      <point x="317" y="561" type="curve" smooth="yes"/>
      <point x="317" y="479"/>
      <point x="285" y="432"/>
      <point x="234" y="370" type="curve" smooth="yes"/>
      <point x="188" y="314"/>
      <point x="178" y="267"/>
      <point x="178" y="141" type="curve"/>
    </contour>
    <contour>
      <point x="169" y="-3" type="curve" smooth="yes"/>
      <point x="156" y="-3"/>
      <point x="146" y="7"/>
      <point x="146" y="20" type="curve" smooth="yes"/>
      <point x="146" y="33"/>
      <point x="156" y="44"/>
      <point x="169" y="44" type="curve" smooth="yes"/>
      <point x="181" y="44"/>
      <point x="192" y="33"/>
      <point x="192" y="20" type="curve" smooth="yes"/>
      <point x="192" y="7"/>
      <point x="181" y="-3"/>
    </contour>
  </outline>
</glyph>
<glyph name="at" format="1">
  <advance width="600"/>
  <unicode hex="0040"/>
  <outline>
    <contour>
      <point x="301" y="-9" type="curve" smooth="yes"/>
      <point x="142" y="-9"/>
      <point x="47" y="132"/>
      <point x="47" y="350" type="curve" smooth="yes"/>
      <point x="47" y="568"/>
      <point x="142" y="709"/>
      <point x="301" y="709" type="curve" smooth="yes"/>
      <point x="463" y="709"/>
      <point x="555" y="560"/>
      <point x="555" y="360" type="curve" smooth="yes"/>
      <point x="555" y="204"/>
      <point x="512" y="161"/>
      <point x="454" y="161" type="curve" smooth="yes"/>
      <point x="422" y="161"/>
      <point x="396" y="178"/>
      <point x="385" y="213" type="curve"/>
      <point x="360" y="184"/>
      <point x="326" y="160"/>
      <point x="286" y="160" type="curve" smooth="yes"/>
      <point x="232" y="160"/>
      <point x="188" y="193"/>
      <point x="188" y="280" type="curve" smooth="yes"/>
      <point x="188" y="367"/>
      <point x="232" y="404"/>
      <point x="291" y="404" type="curve" smooth="yes"/>
      <point x="327" y="404"/>
      <point x="355" y="392"/>
      <point x="378" y="374" type="curve"/>
      <point x="378" y="458" type="line" smooth="yes"/>
      <point x="378" y="517"/>
      <point x="356" y="541"/>
      <point x="301" y="541" type="curve" smooth="yes"/>
      <point x="272" y="541"/>
      <point x="245" y="530"/>
      <point x="218" y="510" type="curve"/>
      <point x="210" y="522" type="line"/>
      <point x="236" y="541"/>
      <point x="267" y="555"/>
      <point x="302" y="555" type="curve" smooth="yes"/>
      <point x="363" y="555"/>
      <point x="393" y="530"/>
      <point x="393" y="459" type="curve" smooth="yes"/>
      <point x="393" y="252" type="line" smooth="yes"/>
      <point x="393" y="201"/>
      <point x="417" y="174"/>
      <point x="454" y="174" type="curve" smooth="yes"/>
      <point x="506" y="174"/>
      <point x="541" y="216"/>
      <point x="541" y="360" type="curve" smooth="yes"/>
      <point x="541" y="557"/>
      <point x="452" y="696"/>
      <point x="301" y="696" type="curve" smooth="yes"/>
      <point x="150" y="696"/>
      <point x="61" y="561"/>
      <point x="61" y="350" type="curve" smooth="yes"/>
      <point x="61" y="139"/>
      <point x="150" y="4"/>
      <point x="301" y="4" type="curve" smooth="yes"/>
      <point x="344" y="4"/>
      <point x="388" y="20"/>
      <point x="415" y="38" type="curve"/>
      <point x="421" y="27" type="line"/>
      <point x="391" y="6"/>
      <point x="345" y="-9"/>
    </contour>
    <contour>
      <point x="288" y="174" type="curve" smooth="yes"/>
      <point x="323" y="174"/>
      <point x="357" y="197"/>
      <point x="380" y="226" type="curve"/>
      <point x="379" y="232"/>
      <point x="378" y="245"/>
      <point x="378" y="252" type="curve" smooth="yes"/>
      <point x="378" y="360" type="line"/>
      <point x="353" y="378"/>
      <point x="327" y="390"/>
      <point x="291" y="390" type="curve" smooth="yes"/>
      <point x="239" y="390"/>
      <point x="203" y="355"/>
      <point x="203" y="280" type="curve" smooth="yes"/>
      <point x="203" y="205"/>
      <point x="240" y="174"/>
    </contour>
  </outline>
</glyph>
<glyph name="A" format="1">
  <advance width="457"/>
  <unicode hex="0041"/>
  <outline>
    <contour>
      <point x="116" y="204" type="line"/>
      <point x="117" y="204"/>
      <point x="68" y="0"/>
      <point x="68" y="0" type="curve"/>
      <point x="49" y="0" type="line"/>
      <point x="217" y="703" type="line"/>
      <point x="240" y="703" type="line"/>
      <point x="408" y="0" type="line"/>
      <point x="388" y="0" type="line"/>
      <point x="340" y="204" type="line"/>
    </contour>
    <contour>
      <point x="335" y="223" type="line" smooth="yes"/>
      <point x="336" y="223"/>
      <point x="228" y="677"/>
      <point x="228" y="677" type="curve"/>
      <point x="121" y="223" type="line"/>
    </contour>
  </outline>
</glyph>
<glyph name="B" format="1">
  <advance width="414"/>
  <unicode hex="0042"/>
  <outline>
    <contour>
      <point x="72" y="0" type="line"/>
      <point x="72" y="700" type="line"/>
      <point x="189" y="700" type="line" smooth="yes"/>
      <point x="282" y="700"/>
      <point x="344" y="653"/>
      <point x="344" y="539" type="curve" smooth="yes"/>
      <point x="344" y="439"/>
      <point x="286" y="386"/>
      <point x="224" y="378" type="curve"/>
      <point x="286" y="374"/>
      <point x="370" y="335"/>
      <point x="370" y="194" type="curve" smooth="yes"/>
      <point x="370" y="61"/>
      <point x="304" y="0"/>
      <point x="192" y="0" type="curve" smooth="yes"/>
    </contour>
    <contour>
      <point x="91" y="387" type="line"/>
      <point x="121" y="387"/>
      <point x="146" y="387"/>
      <point x="182" y="387" type="curve" smooth="yes"/>
      <point x="281" y="387"/>
      <point x="324" y="455"/>
      <point x="324" y="539" type="curve" smooth="yes"/>
      <point x="324" y="641"/>
      <point x="270" y="681"/>
      <point x="189" y="681" type="curve" smooth="yes"/>
      <point x="91" y="681" type="line"/>
    </contour>
    <contour>
      <point x="91" y="19" type="line"/>
      <point x="192" y="19" type="line" smooth="yes"/>
      <point x="292" y="19"/>
      <point x="350" y="73"/>
      <point x="350" y="194" type="curve" smooth="yes"/>
      <point x="350" y="312"/>
      <point x="292" y="368"/>
      <point x="180" y="368" type="curve" smooth="yes"/>
      <point x="147" y="368"/>
      <point x="100" y="368"/>
      <point x="91" y="368" type="curve"/>
    </contour>
  </outline>
</glyph>
<glyph name="C" format="1">
  <advance width="420"/>
  <unicode hex="0043"/>
  <outline>
    <contour>
      <point x="233" y="-9" type="curve" smooth="yes"/>
      <point x="122" y="-9"/>
      <point x="55" y="103"/>
      <point x="55" y="350" type="curve" smooth="yes"/>
      <point x="55" y="596"/>
      <point x="125" y="709"/>
      <point x="235" y="709" type="curve" smooth="yes"/>
      <point x="305" y="709"/>
      <point x="348" y="658"/>
      <point x="368" y="577" type="curve"/>
      <point x="349" y="572" type="line"/>
      <point x="331" y="645"/>
      <point x="295" y="691"/>
      <point x="235" y="691" type="curve" smooth="yes"/>
      <point x="135" y="691"/>
      <point x="75" y="580"/>
      <point x="75" y="350" type="curve" smooth="yes"/>
      <point x="75" y="119"/>
      <point x="134" y="9"/>
      <point x="234" y="9" type="curve" smooth="yes"/>
      <point x="295" y="9"/>
      <point x="330" y="58"/>
      <point x="353" y="133" type="curve"/>
      <point x="372" y="128" type="line"/>
      <point x="347" y="47"/>
      <point x="307" y="-9"/>
    </contour>
  </outline>
</glyph>
<glyph name="D" format="1">
  <advance width="453"/>
  <unicode hex="0044"/>
  <outline>
    <contour>
      <point x="72" y="0" type="line"/>
      <point x="72" y="700" type="line"/>
      <point x="183" y="700" type="line" smooth="yes"/>
      <point x="328" y="700"/>
      <point x="398" y="600"/>
      <point x="398" y="351" type="curve" smooth="yes"/>
      <point x="398" y="97"/>
      <point x="326" y="0"/>
      <point x="181" y="0" type="curve" smooth="yes"/>
    </contour>
    <contour>
      <point x="92" y="19" type="line"/>
      <point x="181" y="19" type="line" smooth="yes"/>
      <point x="316" y="19"/>
      <point x="378" y="113"/>
      <point x="378" y="351" type="curve" smooth="yes"/>
      <point x="378" y="584"/>
      <point x="318" y="681"/>
      <point x="183" y="681" type="curve" smooth="yes"/>
      <point x="92" y="681" type="line"/>
    </contour>
  </outline>
</glyph>
<glyph name="E" format="1">
  <advance width="366"/>
  <unicode hex="0045"/>
  <outline>
    <contour>
      <point x="72" y="0" type="line"/>
      <point x="72" y="700" type="line"/>
      <point x="324" y="700" type="line"/>
      <point x="324" y="681" type="line"/>
      <point x="92" y="681" type="line"/>
      <point x="92" y="384" type="line"/>
      <point x="243" y="384" type="line"/>
      <point x="243" y="365" type="line"/>
      <point x="92" y="365" type="line"/>
      <point x="92" y="19" type="line"/>
      <point x="336" y="19" type="line"/>
      <point x="336" y="0" type="line"/>
    </contour>
  </outline>
</glyph>
<glyph name="F" format="1">
  <advance width="351"/>
  <unicode hex="0046"/>
  <outline>
    <contour>
      <point x="72" y="0" type="line"/>
      <point x="72" y="700" type="line"/>
      <point x="323" y="700" type="line"/>
      <point x="323" y="681" type="line"/>
      <point x="92" y="681" type="line"/>
      <point x="92" y="374" type="line"/>
      <point x="245" y="374" type="line"/>
      <point x="245" y="355" type="line"/>
      <point x="92" y="355" type="line"/>
      <point x="92" y="0" type="line"/>
    </contour>
  </outline>
</glyph>
<glyph name="G" format="1">
  <advance width="446"/>
  <unicode hex="0047"/>
  <outline>
    <contour>
      <point x="236" y="-9" type="curve" smooth="yes"/>
      <point x="121" y="-9"/>
      <point x="55" y="103"/>
      <point x="55" y="350" type="curve" smooth="yes"/>
      <point x="55" y="595"/>
      <point x="124" y="709"/>
      <point x="234" y="709" type="curve" smooth="yes"/>
      <point x="305" y="709"/>
      <point x="348" y="665"/>
      <point x="376" y="571" type="curve"/>
      <point x="358" y="563" type="line"/>
      <point x="330" y="656"/>
      <point x="291" y="691"/>
      <point x="234" y="691" type="curve" smooth="yes"/>
      <point x="138" y="691"/>
      <point x="75" y="586"/>
      <point x="75" y="350" type="curve" smooth="yes"/>
      <point x="75" y="113"/>
      <point x="135" y="9"/>
      <point x="237" y="9" type="curve" smooth="yes"/>
      <point x="325" y="9"/>
      <point x="376" y="90"/>
      <point x="376" y="258" type="curve" smooth="yes"/>
      <point x="376" y="311" type="line"/>
      <point x="258" y="311" type="line"/>
      <point x="258" y="330" type="line"/>
      <point x="396" y="330" type="line"/>
      <point x="396" y="260" type="line" smooth="yes"/>
      <point x="396" y="83"/>
      <point x="339" y="-9"/>
    </contour>
  </outline>
</glyph>
<glyph name="H" format="1">
  <advance width="464"/>
  <unicode hex="0048"/>
  <outline>
    <contour>
      <point x="72" y="0" type="line"/>
      <point x="72" y="700" type="line"/>
      <point x="92" y="700" type="line"/>
      <point x="92" y="380" type="line"/>
      <point x="372" y="380" type="line"/>
      <point x="372" y="700" type="line"/>
      <point x="392" y="700" type="line"/>
      <point x="392" y="0" type="line"/>
      <point x="372" y="0" type="line"/>
      <point x="372" y="361" type="line"/>
      <point x="92" y="361" type="line"/>
      <point x="92" y="0" type="line"/>
    </contour>
  </outline>
</glyph>
<glyph name="J" format="1">
  <advance width="386"/>
  <unicode hex="004A"/>
  <outline>
    <contour>
      <point x="175" y="-9" type="curve" smooth="yes"/>
      <point x="92" y="-9"/>
      <point x="47" y="45"/>
      <point x="30" y="153" type="curve"/>
      <point x="49" y="155" type="line"/>
      <point x="65" y="55"/>
      <point x="107" y="9"/>
      <point x="175" y="9" type="curve" smooth="yes"/>
      <point x="257" y="9"/>
      <point x="298" y="69"/>
      <point x="298" y="199" type="curve" smooth="yes"/>
      <point x="298" y="700" type="line"/>
      <point x="318" y="700" type="line"/>
      <point x="318" y="198" type="line" smooth="yes"/>
      <point x="318" y="58"/>
      <point x="269" y="-9"/>
    </contour>
  </outline>
</glyph>
<glyph name="K" format="1">
  <advance width="409"/>
  <unicode hex="004B"/>
  <outline>
    <contour>
      <point x="92" y="298" type="line"/>
      <point x="340" y="700" type="line"/>
      <point x="361" y="700" type="line"/>
      <point x="191" y="426" type="line"/>
      <point x="376" y="0" type="line"/>
      <point x="355" y="0" type="line"/>
      <point x="179" y="406" type="line"/>
      <point x="92" y="266" type="line"/>
      <point x="92" y="0" type="line"/>
      <point x="72" y="0" type="line"/>
      <point x="72" y="700" type="line"/>
      <point x="92" y="700" type="line"/>
    </contour>
  </outline>
</glyph>
<glyph name="L" format="1">
  <advance width="339"/>
  <unicode hex="004C"/>
  <outline>
    <contour>
      <point x="72" y="0" type="line"/>
      <point x="72" y="700" type="line"/>
      <point x="92" y="700" type="line"/>
      <point x="92" y="19" type="line"/>
      <point x="314" y="19" type="line"/>
      <point x="314" y="0" type="line"/>
    </contour>
  </outline>
</glyph>
<glyph name="M" format="1">
  <advance width="553"/>
  <unicode hex="004D"/>
  <outline>
    <contour>
      <point x="273" y="-6" type="line"/>
      <point x="90" y="652" type="line"/>
      <point x="90" y="0" type="line"/>
      <point x="72" y="0" type="line"/>
      <point x="72" y="700" type="line"/>
      <point x="95" y="700" type="line"/>
      <point x="276" y="48" type="line"/>
      <point x="458" y="700" type="line"/>
      <point x="481" y="700" type="line"/>
      <point x="481" y="0" type="line"/>
      <point x="463" y="0" type="line"/>
      <point x="463" y="652" type="line"/>
      <point x="279" y="-6" type="line"/>
    </contour>
  </outline>
</glyph>
<glyph name="N" format="1">
  <advance width="461"/>
  <unicode hex="004E"/>
  <outline>
    <contour>
      <point x="72" y="0" type="line"/>
      <point x="72" y="700" type="line"/>
      <point x="92" y="700" type="line"/>
      <point x="371" y="47" type="line"/>
      <point x="371" y="700" type="line"/>
      <point x="389" y="700" type="line"/>
      <point x="389" y="0" type="line"/>
      <point x="372" y="0" type="line"/>
      <point x="90" y="659" type="line"/>
      <point x="90" y="0" type="line"/>
    </contour>
  </outline>
</glyph>
<glyph name="O" format="1">
  <advance width="478"/>
  <unicode hex="004F"/>
  <outline>
    <contour>
      <point x="239" y="-9" type="curve" smooth="yes"/>
      <point x="126" y="-9"/>
      <point x="55" y="100"/>
      <point x="55" y="350" type="curve" smooth="yes"/>
      <point x="55" y="600"/>
      <point x="126" y="709"/>
      <point x="239" y="709" type="curve" smooth="yes"/>
      <point x="352" y="709"/>
      <point x="423" y="600"/>
      <point x="423" y="350" type="curve" smooth="yes"/>
      <point x="423" y="100"/>
      <point x="352" y="-9"/>
    </contour>
    <contour>
      <point x="239" y="9" type="curve" smooth="yes"/>
      <point x="342" y="9"/>
      <point x="403" y="116"/>
      <point x="403" y="350" type="curve" smooth="yes"/>
      <point x="403" y="584"/>
      <point x="342" y="691"/>
      <point x="239" y="691" type="curve" smooth="yes"/>
      <point x="136" y="691"/>
      <point x="75" y="584"/>
      <point x="75" y="350" type="curve" smooth="yes"/>
      <point x="75" y="116"/>
      <point x="136" y="9"/>
    </contour>
  </outline>
</glyph>
<glyph name="P" format="1">
  <advance width="400"/>
  <unicode hex="0050"/>
  <outline>
    <contour>
      <point x="72" y="0" type="line"/>
      <point x="72" y="700" type="line"/>
      <point x="182" y="700" type="line" smooth="yes"/>
      <point x="293" y="700"/>
      <point x="365" y="656"/>
      <point x="365" y="518" type="curve" smooth="yes"/>
      <point x="365" y="380"/>
      <point x="287" y="327"/>
      <point x="176" y="327" type="curve" smooth="yes"/>
      <point x="92" y="327" type="line"/>
      <point x="92" y="0" type="line"/>
    </contour>
    <contour>
      <point x="92" y="346" type="line"/>
      <point x="176" y="346" type="line" smooth="yes"/>
      <point x="275" y="346"/>
      <point x="345" y="392"/>
      <point x="345" y="518" type="curve" smooth="yes"/>
      <point x="345" y="642"/>
      <point x="281" y="681"/>
      <point x="182" y="681" type="curve" smooth="yes"/>
      <point x="92" y="681" type="line"/>
    </contour>
  </outline>
</glyph>
<glyph name="Q" format="1">
  <advance width="478"/>
  <unicode hex="0051"/>
  <outline>
    <contour>
      <point x="372" y="-18" type="line"/>
      <point x="338" y="29" type="line"/>
      <point x="311" y="4"/>
      <point x="277" y="-9"/>
      <point x="239" y="-9" type="curve" smooth="yes"/>
      <point x="126" y="-9"/>
      <point x="55" y="100"/>
      <point x="55" y="350" type="curve" smooth="yes"/>
      <point x="55" y="600"/>
      <point x="126" y="709"/>
      <point x="239" y="709" type="curve" smooth="yes"/>
      <point x="352" y="709"/>
      <point x="423" y="600"/>
      <point x="423" y="350" type="curve" smooth="yes"/>
      <point x="423" y="198"/>
      <point x="397" y="98"/>
      <point x="350" y="43" type="curve"/>
      <point x="387" y="-6" type="line"/>
    </contour>
    <contour>
      <point x="239" y="9" type="curve" smooth="yes"/>
      <point x="273" y="9"/>
      <point x="302" y="20"/>
      <point x="326" y="44" type="curve"/>
      <point x="265" y="127" type="line"/>
      <point x="280" y="139" type="line"/>
      <point x="339" y="58" type="line"/>
      <point x="381" y="111"/>
      <point x="403" y="207"/>
      <point x="403" y="350" type="curve" smooth="yes"/>
      <point x="403" y="584"/>
      <point x="342" y="691"/>
      <point x="239" y="691" type="curve" smooth="yes"/>
      <point x="136" y="691"/>
      <point x="75" y="584"/>
      <point x="75" y="350" type="curve" smooth="yes"/>
      <point x="75" y="116"/>
      <point x="136" y="9"/>
    </contour>
  </outline>
</glyph>
<glyph name="R" format="1">
  <advance width="417"/>
  <unicode hex="0052"/>
  <outline>
    <contour>
      <point x="72" y="0" type="line"/>
      <point x="72" y="700" type="line"/>
      <point x="182" y="700" type="line" smooth="yes"/>
      <point x="293" y="700"/>
      <point x="365" y="655"/>
      <point x="365" y="524" type="curve" smooth="yes"/>
      <point x="365" y="419"/>
      <point x="314" y="364"/>
      <point x="239" y="346" type="curve"/>
      <point x="365" y="0" type="line"/>
      <point x="343" y="0" type="line"/>
      <point x="218" y="343" type="line"/>
      <point x="210" y="341"/>
      <point x="191" y="339"/>
      <point x="176" y="339" type="curve" smooth="yes"/>
      <point x="92" y="339" type="line"/>
      <point x="92" y="0" type="line"/>
    </contour>
    <contour>
      <point x="92" y="358" type="line"/>
      <point x="176" y="358" type="line" smooth="yes"/>
      <point x="275" y="358"/>
      <point x="345" y="404"/>
      <point x="345" y="524" type="curve" smooth="yes"/>
      <point x="345" y="642"/>
      <point x="281" y="681"/>
      <point x="182" y="681" type="curve" smooth="yes"/>
      <point x="92" y="681" type="line"/>
    </contour>
  </outline>
</glyph>
<glyph name="S" format="1">
  <advance width="393"/>
  <unicode hex="0053"/>
  <outline>
    <contour>
      <point x="194" y="-9" type="curve" smooth="yes"/>
      <point x="123" y="-9"/>
      <point x="74" y="30"/>
      <point x="45" y="117" type="curve"/>
      <point x="63" y="123" type="line"/>
      <point x="90" y="46"/>
      <point x="131" y="9"/>
      <point x="194" y="9" type="curve" smooth="yes"/>
      <point x="267" y="9"/>
      <point x="319" y="59"/>
      <point x="319" y="153" type="curve" smooth="yes"/>
      <point x="319" y="233"/>
      <point x="288" y="288"/>
      <point x="186" y="362" type="curve" smooth="yes"/>
      <point x="85" y="435"/>
      <point x="54" y="482"/>
      <point x="54" y="560" type="curve" smooth="yes"/>
      <point x="54" y="647"/>
      <point x="105" y="709"/>
      <point x="192" y="709" type="curve" smooth="yes"/>
      <point x="270" y="709"/>
      <point x="309" y="662"/>
      <point x="334" y="603" type="curve"/>
      <point x="316" y="596" type="line"/>
      <point x="293" y="647"/>
      <point x="260" y="691"/>
      <point x="192" y="691" type="curve" smooth="yes"/>
      <point x="116" y="691"/>
      <point x="74" y="636"/>
      <point x="74" y="560" type="curve" smooth="yes"/>
      <point x="74" y="488"/>
      <point x="107" y="444"/>
      <point x="198" y="378" type="curve" smooth="yes"/>
      <point x="310" y="297"/>
      <point x="339" y="239"/>
      <point x="339" y="153" type="curve" smooth="yes"/>
      <point x="339" y="46"/>
      <point x="276" y="-9"/>
    </contour>
  </outline>
</glyph>
<glyph name="T" format="1">
  <advance width="381"/>
  <unicode hex="0054"/>
  <outline>
    <contour>
      <point x="180" y="0" type="line"/>
      <point x="180" y="681" type="line"/>
      <point x="30" y="681" type="line"/>
      <point x="30" y="700" type="line"/>
      <point x="350" y="700" type="line"/>
      <point x="350" y="681" type="line"/>
      <point x="200" y="681" type="line"/>
      <point x="200" y="0" type="line"/>
    </contour>
  </outline>
</glyph>
<glyph name="U" format="1">
  <advance width="459"/>
  <unicode hex="0055"/>
  <outline>
    <contour>
      <point x="230" y="-9" type="curve" smooth="yes"/>
      <point x="125" y="-9"/>
      <point x="68" y="57"/>
      <point x="68" y="186" type="curve" smooth="yes"/>
      <point x="68" y="700" type="line"/>
      <point x="88" y="700" type="line"/>
      <point x="88" y="186" type="line" smooth="yes"/>
      <point x="88" y="68"/>
      <point x="138" y="9"/>
      <point x="230" y="9" type="curve" smooth="yes"/>
      <point x="322" y="9"/>
      <point x="371" y="68"/>
      <point x="371" y="186" type="curve" smooth="yes"/>
      <point x="371" y="700" type="line"/>
      <point x="391" y="700" type="line"/>
      <point x="391" y="186" type="line" smooth="yes"/>
      <point x="391" y="57"/>
      <point x="335" y="-9"/>
    </contour>
  </outline>
</glyph>
<glyph name="V" format="1">
  <advance width="449"/>
  <unicode hex="0056"/>
  <outline>
    <contour>
      <point x="214" y="-3" type="line"/>
      <point x="49" y="700" type="line"/>
      <point x="69" y="700" type="line"/>
      <point x="226" y="30" type="line"/>
      <point x="381" y="700" type="line"/>
      <point x="400" y="700" type="line"/>
      <point x="237" y="-3" type="line"/>
    </contour>
  </outline>
</glyph>
<glyph name="W" format="1">
  <advance width="610"/>
  <unicode hex="0057"/>
  <outline>
    <contour>
      <point x="162" y="-3" type="line"/>
      <point x="50" y="700" type="line"/>
      <point x="69" y="700" type="line"/>
      <point x="172" y="39" type="line"/>
      <point x="296" y="700" type="line"/>
      <point x="314" y="700" type="line"/>
      <point x="439" y="39" type="line"/>
      <point x="541" y="700" type="line"/>
      <point x="560" y="700" type="line"/>
      <point x="448" y="-3" type="line"/>
      <point x="429" y="-3" type="line"/>
      <point x="305" y="657" type="line"/>
      <point x="181" y="-3" type="line"/>
    </contour>
  </outline>
</glyph>
<glyph name="X" format="1">
  <advance width="408"/>
  <unicode hex="0058"/>
  <outline>
    <contour>
      <point x="43" y="0" type="line"/>
      <point x="194" y="360" type="line"/>
      <point x="53" y="700" type="line"/>
      <point x="73" y="700" type="line"/>
      <point x="204" y="384" type="line"/>
      <point x="337" y="700" type="line"/>
      <point x="355" y="700" type="line"/>
      <point x="214" y="363" type="line"/>
      <point x="365" y="0" type="line"/>
      <point x="345" y="0" type="line"/>
      <point x="203" y="339" type="line"/>
      <point x="61" y="0" type="line"/>
    </contour>
  </outline>
</glyph>
<glyph name="Y" format="1">
  <advance width="418"/>
  <unicode hex="0059"/>
  <outline>
    <contour>
      <point x="199" y="0" type="line"/>
      <point x="199" y="291" type="line"/>
      <point x="37" y="700" type="line"/>
      <point x="58" y="700" type="line"/>
      <point x="210" y="317" type="line"/>
      <point x="361" y="700" type="line"/>
      <point x="381" y="700" type="line"/>
      <point x="219" y="290" type="line"/>
      <point x="219" y="0" type="line"/>
    </contour>
  </outline>
</glyph>
<glyph name="Z" format="1">
  <advance width="391"/>
  <unicode hex="005A"/>
  <outline>
    <contour>
      <point x="38" y="0" type="line"/>
      <point x="38" y="19" type="line"/>
      <point x="38" y="19"/>
      <point x="320" y="678"/>
      <point x="321" y="681" type="curve"/>
      <point x="55" y="681" type="line"/>
      <point x="55" y="700" type="line"/>
      <point x="342" y="700" type="line"/>
      <point x="342" y="681" type="line"/>
      <point x="342" y="681"/>
      <point x="60" y="22"/>
      <point x="59" y="19" type="curve"/>
      <point x="342" y="19" type="line"/>
      <point x="342" y="0" type="line"/>
    </contour>
  </outline>
</glyph>
<glyph name="bracketleft" format="1">
  <advance width="235"/>
  <unicode hex="005B"/>
  <outline>
    <contour>
      <point x="74" y="-107" type="line"/>
      <point x="74" y="700" type="line"/>
      <point x="196" y="700" type="line"/>
      <point x="196" y="682" type="line"/>
      <point x="93" y="682" type="line"/>
      <point x="93" y="-90" type="line"/>
      <point x="196" y="-90" type="line"/>
      <point x="196" y="-107" type="line"/>
    </contour>
  </outline>
</glyph>
<glyph name="backslash" format="1">
  <advance width="265"/>
  <unicode hex="005C"/>
  <outline>
    <contour>
      <point x="231" y="-90" type="line"/>
      <point x="15" y="790" type="line"/>
      <point x="34" y="790" type="line"/>
      <point x="249" y="-90" type="line"/>
    </contour>
  </outline>
</glyph>
<glyph name="bracketright" format="1">
  <advance width="235"/>
  <unicode hex="005D"/>
  <outline>
    <contour>
      <point x="39" y="-107" type="line"/>
      <point x="39" y="-90" type="line"/>
      <point x="142" y="-90" type="line"/>
      <point x="142" y="682" type="line"/>
      <point x="39" y="682" type="line"/>
      <point x="39" y="700" type="line"/>
      <point x="161" y="700" type="line"/>
      <point x="161" y="-107" type="line"/>
    </contour>
  </outline>
</glyph>
<glyph name="asciicircum" format="1">
  <advance width="376"/>
  <unicode hex="005E"/>
  <outline>
    <contour>
      <point x="43" y="382" type="line"/>
      <point x="179" y="700" type="line"/>
      <point x="196" y="700" type="line"/>
      <point x="333" y="382" type="line"/>
      <point x="312" y="382" type="line"/>
      <point x="188" y="675" type="line"/>
      <point x="64" y="382" type="line"/>
    </contour>
  </outline>
</glyph>
<glyph name="underscore" format="1">
  <advance width="336"/>
  <unicode hex="005F"/>
  <outline>
    <contour>
      <point x="-5" y="-118" type="line"/>
      <point x="-5" y="-100" type="line"/>
      <point x="341" y="-100" type="line"/>
      <point x="341" y="-118" type="line"/>
    </contour>
  </outline>
</glyph>
<glyph name="grave" format="1">
  <advance width="386"/>
  <unicode hex="0060"/>
  <outline>
    <contour>
      <point x="190" y="598" type="line"/>
      <point x="91" y="750" type="line"/>
      <point x="117" y="750" type="line"/>
      <point x="205" y="598" type="line"/>
    </contour>
  </outline>
</glyph>
<glyph name="a" format="1">
  <advance width="380"/>
  <unicode hex="0061"/>
  <outline>
    <contour>
      <point x="169" y="-9" type="curve" smooth="yes"/>
      <point x="104" y="-9"/>
      <point x="40" y="34"/>
      <point x="40" y="155" type="curve" smooth="yes"/>
      <point x="40" y="274"/>
      <point x="101" y="323"/>
      <point x="179" y="323" type="curve" smooth="yes"/>
      <point x="227" y="323"/>
      <point x="273" y="305"/>
      <point x="300" y="288" type="curve"/>
      <point x="300" y="398" type="line" smooth="yes"/>
      <point x="300" y="482"/>
      <point x="271" y="516"/>
      <point x="200" y="516" type="curve" smooth="yes"/>
      <point x="153" y="516"/>
      <point x="111" y="497"/>
      <point x="79" y="472" type="curve"/>
      <point x="69" y="487" type="line"/>
      <point x="102" y="513"/>
      <point x="149" y="534"/>
      <point x="200" y="534" type="curve" smooth="yes"/>
      <point x="282" y="534"/>
      <point x="319" y="498"/>
      <point x="319" y="398" type="curve" smooth="yes"/>
      <point x="319" y="0" type="line"/>
      <point x="300" y="0" type="line"/>
      <point x="300" y="60" type="line"/>
      <point x="267" y="19"/>
      <point x="227" y="-9"/>
    </contour>
    <contour>
      <point x="169" y="9" type="curve" smooth="yes"/>
      <point x="238" y="9"/>
      <point x="275" y="52"/>
      <point x="300" y="86" type="curve"/>
      <point x="300" y="267" type="line"/>
      <point x="271" y="287"/>
      <point x="231" y="305"/>
      <point x="179" y="305" type="curve" smooth="yes"/>
      <point x="110" y="305"/>
      <point x="60" y="258"/>
      <point x="60" y="155" type="curve" smooth="yes"/>
      <point x="60" y="50"/>
      <point x="115" y="9"/>
    </contour>
  </outline>
</glyph>
<glyph name="c" format="1">
  <advance width="356"/>
  <unicode hex="0063"/>
  <outline>
    <contour>
      <point x="197" y="-9" type="curve" smooth="yes"/>
      <point x="106" y="-9"/>
      <point x="45" y="93"/>
      <point x="45" y="261" type="curve" smooth="yes"/>
      <point x="45" y="432"/>
      <point x="108" y="534"/>
      <point x="198" y="534" type="curve" smooth="yes"/>
      <point x="261" y="534"/>
      <point x="296" y="488"/>
      <point x="317" y="434" type="curve"/>
      <point x="300" y="426" type="line"/>
      <point x="280" y="472"/>
      <point x="254" y="516"/>
      <point x="198" y="516" type="curve" smooth="yes"/>
      <point x="117" y="516"/>
      <point x="65" y="418"/>
      <point x="65" y="261" type="curve" smooth="yes"/>
      <point x="65" y="107"/>
      <point x="116" y="9"/>
      <point x="198" y="9" type="curve" smooth="yes"/>
      <point x="252" y="9"/>
      <point x="280" y="52"/>
      <point x="301" y="99" type="curve"/>
      <point x="318" y="91" type="line"/>
      <point x="295" y="36"/>
      <point x="258" y="-9"/>
    </contour>
  </outline>
</glyph>
<glyph name="e" format="1">
  <advance width="388"/>
  <unicode hex="0065"/>
  <outline>
    <contour>
      <point x="197" y="-9" type="curve" smooth="yes"/>
      <point x="106" y="-9"/>
      <point x="45" y="93"/>
      <point x="45" y="261" type="curve" smooth="yes"/>
      <point x="45" y="432"/>
      <point x="108" y="534"/>
      <point x="198" y="534" type="curve" smooth="yes"/>
      <point x="292" y="534"/>
      <point x="340" y="428"/>
      <point x="340" y="272" type="curve" smooth="yes"/>
      <point x="340" y="267"/>
      <point x="340" y="261"/>
      <point x="340" y="258" type="curve"/>
      <point x="65" y="258" type="line"/>
      <point x="65" y="258"/>
      <point x="65" y="256"/>
      <point x="65" y="255" type="curve" smooth="yes"/>
      <point x="66" y="106"/>
      <point x="117" y="9"/>
      <point x="198" y="9" type="curve" smooth="yes"/>
      <point x="249" y="9"/>
      <point x="285" y="35"/>
      <point x="315" y="88" type="curve"/>
      <point x="330" y="79" type="line"/>
      <point x="298" y="22"/>
      <point x="254" y="-9"/>
    </contour>
    <contour>
      <point x="65" y="276" type="curve"/>
      <point x="321" y="276" type="line"/>
      <point x="321" y="278"/>
      <point x="321" y="281"/>
      <point x="321" y="282" type="curve" smooth="yes"/>
      <point x="319" y="418"/>
      <point x="278" y="516"/>
      <point x="198" y="516" type="curve" smooth="yes"/>
      <point x="121" y="516"/>
      <point x="67" y="424"/>
    </contour>
  </outline>
</glyph>
<glyph name="f" format="1">
  <advance width="227"/>
  <unicode hex="0066"/>
  <outline>
    <contour>
      <point x="88" y="0" type="line"/>
      <point x="88" y="508" type="line"/>
      <point x="27" y="508" type="line"/>
      <point x="27" y="525" type="line"/>
      <point x="88" y="525" type="line"/>
      <point x="88" y="625" type="line" smooth="yes"/>
      <point x="88" y="698"/>
      <point x="122" y="725"/>
      <point x="170" y="725" type="curve" smooth="yes"/>
      <point x="192" y="725"/>
      <point x="205" y="722"/>
      <point x="218" y="718" type="curve"/>
      <point x="218" y="699" type="line"/>
      <point x="208" y="703"/>
      <point x="190" y="707"/>
      <point x="172" y="707" type="curve" smooth="yes"/>
      <point x="132" y="707"/>
      <point x="107" y="686"/>
      <point x="107" y="627" type="curve" smooth="yes"/>
      <point x="107" y="525" type="line"/>
      <point x="204" y="525" type="line"/>
      <point x="204" y="508" type="line"/>
      <point x="107" y="508" type="line"/>
      <point x="107" y="0" type="line"/>
    </contour>
  </outline>
</glyph>
<glyph name="g" format="1">
  <advance width="397"/>
  <unicode hex="0067"/>
  <outline>
    <contour>
      <point x="152" y="-191" type="curve"/>
      <point x="144" y="-175" type="line"/>
      <point x="273" y="-154"/>
      <point x="313" y="-109"/>
      <point x="313" y="22" type="curve" smooth="yes"/>
      <point x="313" y="60" type="line"/>
      <point x="285" y="25"/>
      <point x="243" y="-9"/>
      <point x="187" y="-9" type="curve" smooth="yes"/>
      <point x="101" y="-9"/>
      <point x="45" y="65"/>
      <point x="45" y="261" type="curve" smooth="yes"/>
      <point x="45" y="459"/>
      <point x="101" y="534"/>
      <point x="187" y="534" type="curve" smooth="yes"/>
      <point x="248" y="534"/>
      <point x="291" y="496"/>
      <point x="313" y="467" type="curve"/>
      <point x="313" y="525" type="line"/>
      <point x="332" y="525" type="line"/>
      <point x="332" y="28" type="line" smooth="yes"/>
      <point x="332" y="-116"/>
      <point x="288" y="-168"/>
    </contour>
    <contour>
      <point x="187" y="9" type="curve" smooth="yes"/>
      <point x="249" y="9"/>
      <point x="288" y="51"/>
      <point x="313" y="86" type="curve"/>
      <point x="313" y="440" type="line"/>
      <point x="286" y="479"/>
      <point x="245" y="516"/>
      <point x="187" y="516" type="curve" smooth="yes"/>
      <point x="109" y="516"/>
      <point x="65" y="441"/>
      <point x="65" y="261" type="curve" smooth="yes"/>
      <point x="65" y="83"/>
      <point x="111" y="9"/>
    </contour>
  </outline>
</glyph>
<glyph name="i" format="1">
  <advance width="160"/>
  <unicode hex="0069"/>
  <outline>
    <contour>
      <point x="80" y="668" type="curve" smooth="yes"/>
      <point x="68" y="668"/>
      <point x="60" y="677"/>
      <point x="60" y="687" type="curve" smooth="yes"/>
      <point x="60" y="698"/>
      <point x="68" y="706"/>
      <point x="80" y="706" type="curve" smooth="yes"/>
      <point x="89" y="706"/>
      <point x="98" y="698"/>
      <point x="98" y="687" type="curve" smooth="yes"/>
      <point x="98" y="677"/>
      <point x="89" y="668"/>
    </contour>
    <contour>
      <point x="70" y="0" type="line"/>
      <point x="70" y="525" type="line"/>
      <point x="89" y="525" type="line"/>
      <point x="89" y="0" type="line"/>
    </contour>
  </outline>
</glyph>
<glyph name="k" format="1">
  <advance width="353"/>
  <unicode hex="006B"/>
  <outline>
    <contour>
      <point x="65" y="0" type="line"/>
      <point x="65" y="718" type="line"/>
      <point x="84" y="729" type="line"/>
      <point x="84" y="203" type="line"/>
      <point x="283" y="525" type="line"/>
      <point x="303" y="525" type="line"/>
      <point x="175" y="319" type="line"/>
      <point x="328" y="0" type="line"/>
      <point x="307" y="0" type="line"/>
      <point x="163" y="300" type="line"/>
      <point x="84" y="172" type="line"/>
      <point x="84" y="0" type="line"/>
    </contour>
  </outline>
</glyph>
<glyph name="l" format="1">
  <advance width="160"/>
  <unicode hex="006C"/>
  <outline>
    <contour>
      <point x="70" y="0" type="line"/>
      <point x="70" y="718" type="line"/>
      <point x="89" y="729" type="line"/>
      <point x="89" y="0" type="line"/>
    </contour>
  </outline>
</glyph>
<glyph name="m" format="1">
  <advance width="647"/>
  <unicode hex="006D"/>
  <outline>
    <contour>
      <point x="332" y="424" type="curve"/>
      <point x="334" y="408"/>
      <point x="335" y="391"/>
      <point x="335" y="373" type="curve" smooth="yes"/>
      <point x="335" y="0" type="line"/>
      <point x="316" y="0" type="line"/>
      <point x="316" y="372" type="line" smooth="yes"/>
      <point x="316" y="459"/>
      <point x="294" y="516"/>
      <point x="212" y="516" type="curve" smooth="yes"/>
      <point x="146" y="516"/>
      <point x="106" y="467"/>
      <point x="84" y="429" type="curve"/>
      <point x="84" y="0" type="line"/>
      <point x="65" y="0" type="line"/>
      <point x="65" y="525" type="line"/>
      <point x="84" y="525" type="line"/>
      <point x="84" y="456" type="line"/>
      <point x="101" y="484"/>
      <point x="146" y="534"/>
      <point x="213" y="534" type="curve" smooth="yes"/>
      <point x="280" y="534"/>
      <point x="314" y="501"/>
      <point x="327" y="446" type="curve"/>
      <point x="354" y="490"/>
      <point x="401" y="534"/>
      <point x="464" y="534" type="curve" smooth="yes"/>
      <point x="557" y="534"/>
      <point x="586" y="470"/>
      <point x="586" y="375" type="curve" smooth="yes"/>
      <point x="586" y="0" type="line"/>
      <point x="567" y="0" type="line"/>
      <point x="567" y="372" type="line" smooth="yes"/>
      <point x="567" y="459"/>
      <point x="545" y="516"/>
      <point x="463" y="516" type="curve" smooth="yes"/>
      <point x="402" y="516"/>
      <point x="360" y="474"/>
    </contour>
  </outline>
</glyph>
<glyph name="n" format="1">
  <advance width="406"/>
  <unicode hex="006E"/>
  <outline>
    <contour>
      <point x="65" y="0" type="line"/>
      <point x="65" y="525" type="line"/>
      <point x="84" y="525" type="line"/>
      <point x="84" y="456" type="line"/>
      <point x="101" y="484"/>
      <point x="151" y="534"/>
      <point x="218" y="534" type="curve" smooth="yes"/>
      <point x="311" y="534"/>
      <point x="345" y="470"/>
      <point x="345" y="375" type="curve" smooth="yes"/>
      <point x="345" y="0" type="line"/>
      <point x="326" y="0" type="line"/>
      <point x="326" y="372" type="line" smooth="yes"/>
      <point x="326" y="459"/>
      <point x="299" y="516"/>
      <point x="217" y="516" type="curve" smooth="yes"/>
      <point x="151" y="516"/>
      <point x="106" y="467"/>
      <point x="84" y="429" type="curve"/>
      <point x="84" y="0" type="line"/>
    </contour>
  </outline>
</glyph>
<glyph name="o" format="1">
  <advance width="409"/>
  <unicode hex="006F"/>
  <outline>
    <contour>
      <point x="205" y="-9" type="curve" smooth="yes"/>
      <point x="105" y="-9"/>
      <point x="45" y="94"/>
      <point x="45" y="262" type="curve" smooth="yes"/>
      <point x="45" y="430"/>
      <point x="105" y="534"/>
      <point x="205" y="534" type="curve" smooth="yes"/>
      <point x="305" y="534"/>
      <point x="364" y="430"/>
      <point x="364" y="262" type="curve" smooth="yes"/>
      <point x="364" y="94"/>
      <point x="305" y="-9"/>
    </contour>
    <contour>
      <point x="205" y="9" type="curve" smooth="yes"/>
      <point x="296" y="9"/>
      <point x="344" y="108"/>
      <point x="344" y="262" type="curve" smooth="yes"/>
      <point x="344" y="416"/>
      <point x="296" y="516"/>
      <point x="205" y="516" type="curve" smooth="yes"/>
      <point x="114" y="516"/>
      <point x="65" y="416"/>
      <point x="65" y="262" type="curve" smooth="yes"/>
      <point x="65" y="108"/>
      <point x="114" y="9"/>
    </contour>
  </outline>
</glyph>
<glyph name="q" format="1">
  <advance width="397"/>
  <unicode hex="0071"/>
  <outline>
    <contour>
      <point x="313" y="-187" type="line"/>
      <point x="313" y="60" type="line"/>
      <point x="285" y="25"/>
      <point x="243" y="-9"/>
      <point x="187" y="-9" type="curve" smooth="yes"/>
      <point x="101" y="-9"/>
      <point x="45" y="65"/>
      <point x="45" y="261" type="curve" smooth="yes"/>
      <point x="45" y="459"/>
      <point x="101" y="534"/>
      <point x="187" y="534" type="curve" smooth="yes"/>
      <point x="248" y="534"/>
      <point x="291" y="496"/>
      <point x="313" y="467" type="curve"/>
      <point x="313" y="525" type="line"/>
      <point x="332" y="525" type="line"/>
      <point x="332" y="-176" type="line"/>
    </contour>
    <contour>
      <point x="187" y="9" type="curve" smooth="yes"/>
      <point x="249" y="9"/>
      <point x="288" y="51"/>
      <point x="313" y="86" type="curve"/>
      <point x="313" y="440" type="line"/>
      <point x="286" y="479"/>
      <point x="245" y="516"/>
      <point x="187" y="516" type="curve" smooth="yes"/>
      <point x="109" y="516"/>
      <point x="65" y="441"/>
      <point x="65" y="261" type="curve" smooth="yes"/>
      <point x="65" y="83"/>
      <point x="111" y="9"/>
    </contour>
  </outline>
</glyph>
<glyph name="r" format="1">
  <advance width="274"/>
  <unicode hex="0072"/>
  <outline>
    <contour>
      <point x="65" y="0" type="line"/>
      <point x="65" y="525" type="line"/>
      <point x="84" y="525" type="line"/>
      <point x="84" y="457" type="line"/>
      <point x="101" y="491"/>
      <point x="142" y="534"/>
      <point x="205" y="534" type="curve" smooth="yes"/>
      <point x="222" y="534"/>
      <point x="238" y="531"/>
      <point x="257" y="524" type="curve"/>
      <point x="251" y="505" type="line"/>
      <point x="235" y="511"/>
      <point x="219" y="515"/>
      <point x="202" y="515" type="curve" smooth="yes"/>
      <point x="153" y="515"/>
      <point x="115" y="486"/>
      <point x="84" y="428" type="curve"/>
      <point x="84" y="0" type="line"/>
    </contour>
  </outline>
</glyph>
<glyph name="s" format="1">
  <advance width="331"/>
  <unicode hex="0073"/>
  <outline>
    <contour>
      <point x="165" y="-9" type="curve" smooth="yes"/>
      <point x="104" y="-9"/>
      <point x="63" y="20"/>
      <point x="34" y="74" type="curve"/>
      <point x="51" y="85" type="line"/>
      <point x="76" y="37"/>
      <point x="114" y="9"/>
      <point x="165" y="9" type="curve" smooth="yes"/>
      <point x="229" y="9"/>
      <point x="268" y="49"/>
      <point x="268" y="110" type="curve" smooth="yes"/>
      <point x="268" y="176"/>
      <point x="238" y="213"/>
      <point x="159" y="265" type="curve" smooth="yes"/>
      <point x="79" y="318"/>
      <point x="47" y="352"/>
      <point x="47" y="422" type="curve" smooth="yes"/>
      <point x="47" y="487"/>
      <point x="89" y="534"/>
      <point x="160" y="534" type="curve" smooth="yes"/>
      <point x="215" y="534"/>
      <point x="255" y="506"/>
      <point x="280" y="463" type="curve"/>
      <point x="264" y="451" type="line"/>
      <point x="242" y="490"/>
      <point x="207" y="516"/>
      <point x="160" y="516" type="curve" smooth="yes"/>
      <point x="101" y="516"/>
      <point x="67" y="476"/>
      <point x="67" y="423" type="curve" smooth="yes"/>
      <point x="67" y="360"/>
      <point x="99" y="329"/>
      <point x="171" y="281" type="curve" smooth="yes"/>
      <point x="256" y="224"/>
      <point x="288" y="184"/>
      <point x="288" y="111" type="curve" smooth="yes"/>
      <point x="288" y="38"/>
      <point x="241" y="-9"/>
    </contour>
  </outline>
</glyph>
<glyph name="t" format="1">
  <advance width="235"/>
  <unicode hex="0074"/>
  <outline>
    <contour>
      <point x="146" y="-6" type="curve" smooth="yes"/>
      <point x="100" y="-6"/>
      <point x="77" y="21"/>
      <point x="77" y="77" type="curve" smooth="yes"/>
      <point x="77" y="508" type="line"/>
      <point x="21" y="508" type="line"/>
      <point x="21" y="525" type="line"/>
      <point x="77" y="525" type="line"/>
      <point x="77" y="705" type="line"/>
      <point x="96" y="715" type="line"/>
      <point x="96" y="525" type="line"/>
      <point x="200" y="525" type="line"/>
      <point x="200" y="508" type="line"/>
      <point x="96" y="508" type="line"/>
      <point x="96" y="80" type="line" smooth="yes"/>
      <point x="96" y="33"/>
      <point x="112" y="12"/>
      <point x="150" y="12" type="curve" smooth="yes"/>
      <point x="170" y="12"/>
      <point x="190" y="17"/>
      <point x="205" y="24" type="curve"/>
      <point x="205" y="5" type="line"/>
      <point x="191" y="-1"/>
      <point x="175" y="-6"/>
    </contour>
  </outline>
</glyph>
<glyph name="u" format="1">
  <advance width="406"/>
  <unicode hex="0075"/>
  <outline>
    <contour>
      <point x="341" y="525" type="line"/>
      <point x="341" y="0" type="line"/>
      <point x="322" y="0" type="line"/>
      <point x="322" y="69" type="line"/>
      <point x="305" y="41"/>
      <point x="255" y="-9"/>
      <point x="188" y="-9" type="curve" smooth="yes"/>
      <point x="95" y="-9"/>
      <point x="61" y="55"/>
      <point x="61" y="150" type="curve" smooth="yes"/>
      <point x="61" y="525" type="line"/>
      <point x="80" y="525" type="line"/>
      <point x="80" y="153" type="line" smooth="yes"/>
      <point x="80" y="66"/>
      <point x="107" y="9"/>
      <point x="189" y="9" type="curve" smooth="yes"/>
      <point x="255" y="9"/>
      <point x="300" y="58"/>
      <point x="322" y="96" type="curve"/>
      <point x="322" y="525" type="line"/>
    </contour>
  </outline>
</glyph>
<glyph name="v" format="1">
  <advance width="368"/>
  <unicode hex="0076"/>
  <outline>
    <contour>
      <point x="175" y="-5" type="line"/>
      <point x="37" y="525" type="line"/>
      <point x="57" y="525" type="line"/>
      <point x="184" y="35" type="line"/>
      <point x="312" y="525" type="line"/>
      <point x="331" y="525" type="line"/>
      <point x="192" y="-5" type="line"/>
    </contour>
  </outline>
</glyph>
<glyph name="w" format="1">
  <advance width="525"/>
  <unicode hex="0077"/>
  <outline>
    <contour>
      <point x="138" y="-5" type="line"/>
      <point x="37" y="525" type="line"/>
      <point x="57" y="525" type="line"/>
      <point x="149" y="41" type="line"/>
      <point x="255" y="527" type="line"/>
      <point x="272" y="527" type="line"/>
      <point x="377" y="41" type="line"/>
      <point x="469" y="525" type="line"/>
      <point x="488" y="525" type="line"/>
      <point x="386" y="-5" type="line"/>
      <point x="370" y="-5" type="line"/>
      <point x="263" y="489" type="line"/>
      <point x="156" y="-5" type="line"/>
    </contour>
  </outline>
</glyph>
<glyph name="x" format="1">
  <advance width="347"/>
  <unicode hex="0078"/>
  <outline>
    <contour>
      <point x="37" y="0" type="line"/>
      <point x="163" y="278" type="line"/>
      <point x="51" y="525" type="line"/>
      <point x="72" y="525" type="line"/>
      <point x="173" y="300" type="line"/>
      <point x="275" y="525" type="line"/>
      <point x="295" y="525" type="line"/>
      <point x="183" y="279" type="line"/>
      <point x="310" y="0" type="line"/>
      <point x="289" y="0" type="line"/>
      <point x="173" y="257" type="line"/>
      <point x="57" y="0" type="line"/>
    </contour>
  </outline>
</glyph>
<glyph name="y" format="1">
  <advance width="367"/>
  <unicode hex="0079"/>
  <outline>
    <contour>
      <point x="174" y="7" type="line"/>
      <point x="37" y="525" type="line"/>
      <point x="57" y="525" type="line"/>
      <point x="184" y="44" type="line"/>
      <point x="311" y="525" type="line"/>
      <point x="330" y="525" type="line"/>
      <point x="142" y="-185" type="line"/>
      <point x="123" y="-185" type="line"/>
    </contour>
  </outline>
</glyph>
<glyph name="z" format="1">
  <advance width="340"/>
  <unicode hex="007A"/>
  <outline>
    <contour>
      <point x="37" y="0" type="line"/>
      <point x="37" y="16" type="line"/>
      <point x="277" y="508" type="line"/>
      <point x="59" y="508" type="line"/>
      <point x="59" y="525" type="line"/>
      <point x="297" y="525" type="line"/>
      <point x="297" y="509" type="line"/>
      <point x="57" y="17" type="line"/>
      <point x="296" y="17" type="line"/>
      <point x="296" y="0" type="line"/>
    </contour>
  </outline>
</glyph>
<glyph name="braceleft" format="1">
  <advance width="275"/>
  <unicode hex="007B"/>
  <outline>
    <contour>
      <point x="247" y="-108" type="line"/>
      <point x="158" y="-101"/>
      <point x="113" y="-58"/>
      <point x="113" y="59" type="curve" smooth="yes"/>
      <point x="113" y="213" type="line" smooth="yes"/>
      <point x="113" y="256"/>
      <point x="93" y="288"/>
      <point x="50" y="288" type="curve" smooth="yes"/>
      <point x="26" y="288" type="line"/>
      <point x="26" y="306" type="line"/>
      <point x="50" y="306" type="line" smooth="yes"/>
      <point x="93" y="306"/>
      <point x="113" y="337"/>
      <point x="113" y="381" type="curve" smooth="yes"/>
      <point x="113" y="534" type="line" smooth="yes"/>
      <point x="113" y="652"/>
      <point x="158" y="695"/>
      <point x="247" y="702" type="curve"/>
      <point x="247" y="686" type="line"/>
      <point x="170" y="677"/>
      <point x="132" y="640"/>
      <point x="132" y="537" type="curve" smooth="yes"/>
      <point x="132" y="384" type="line" smooth="yes"/>
      <point x="132" y="337"/>
      <point x="115" y="307"/>
      <point x="77" y="297" type="curve"/>
      <point x="115" y="287"/>
      <point x="132" y="256"/>
      <point x="132" y="209" type="curve" smooth="yes"/>
      <point x="132" y="57" type="line" smooth="yes"/>
      <point x="132" y="-47"/>
      <point x="170" y="-83"/>
      <point x="247" y="-92" type="curve"/>
    </contour>
  </outline>
</glyph>
<glyph name="braceright" format="1">
  <advance width="275"/>
  <unicode hex="007D"/>
  <outline>
    <contour>
      <point x="28" y="-108" type="curve"/>
      <point x="28" y="-92" type="line"/>
      <point x="105" y="-83"/>
      <point x="143" y="-47"/>
      <point x="143" y="57" type="curve" smooth="yes"/>
      <point x="143" y="209" type="line" smooth="yes"/>
      <point x="143" y="257"/>
      <point x="160" y="287"/>
      <point x="198" y="297" type="curve"/>
      <point x="160" y="307"/>
      <point x="143" y="338"/>
      <point x="143" y="385" type="curve" smooth="yes"/>
      <point x="143" y="537" type="line" smooth="yes"/>
      <point x="143" y="640"/>
      <point x="105" y="677"/>
      <point x="28" y="686" type="curve"/>
      <point x="28" y="702" type="line"/>
      <point x="117" y="695"/>
      <point x="162" y="652"/>
      <point x="162" y="534" type="curve" smooth="yes"/>
      <point x="162" y="381" type="line" smooth="yes"/>
      <point x="162" y="338"/>
      <point x="182" y="306"/>
      <point x="225" y="306" type="curve" smooth="yes"/>
      <point x="249" y="306" type="line"/>
      <point x="249" y="288" type="line"/>
      <point x="225" y="288" type="line" smooth="yes"/>
      <point x="182" y="288"/>
      <point x="162" y="256"/>
      <point x="162" y="213" type="curve" smooth="yes"/>
      <point x="162" y="59" type="line" smooth="yes"/>
      <point x="162" y="-58"/>
      <point x="117" y="-101"/>
    </contour>
  </outline>
</glyph>
<glyph name="asciitilde" format="1">
  <advance width="356"/>
  <unicode hex="007E"/>
  <outline>
    <contour>
      <point x="39" y="324" type="line"/>
      <point x="54" y="385"/>
      <point x="80" y="433"/>
      <point x="116" y="433" type="curve" smooth="yes"/>
      <point x="172" y="433"/>
      <point x="197" y="330"/>
      <point x="241" y="330" type="curve" smooth="yes"/>
      <point x="267" y="330"/>
      <point x="287" y="371"/>
      <point x="301" y="426" type="curve"/>
      <point x="317" y="420" type="line"/>
      <point x="302" y="360"/>
      <point x="278" y="311"/>
      <point x="241" y="311" type="curve" smooth="yes"/>
      <point x="185" y="311"/>
      <point x="160" y="414"/>
      <point x="116" y="414" type="curve" smooth="yes"/>
      <point x="89" y="414"/>
      <point x="69" y="373"/>
      <point x="55" y="318" type="curve"/>
    </contour>
  </outline>
</glyph>
<glyph name="exclamdown" format="1">
  <advance width="172"/>
  <unicode hex="00A1"/>
  <outline>
    <contour>
      <point x="86" y="656" type="curve" smooth="yes"/>
      <point x="74" y="656"/>
      <point x="63" y="667"/>
      <point x="63" y="680" type="curve" smooth="yes"/>
      <point x="63" y="693"/>
      <point x="74" y="703"/>
      <point x="86" y="703" type="curve" smooth="yes"/>
      <point x="99" y="703"/>
      <point x="109" y="693"/>
      <point x="109" y="680" type="curve" smooth="yes"/>
      <point x="109" y="667"/>
      <point x="99" y="656"/>
    </contour>
    <contour>
      <point x="76" y="0" type="line"/>
      <point x="76" y="334" type="line"/>
      <point x="80" y="561" type="line"/>
      <point x="92" y="561" type="line"/>
      <point x="96" y="334" type="line"/>
      <point x="96" y="0" type="line"/>
    </contour>
  </outline>
</glyph>
<glyph name="cent" format="1">
  <advance width="356"/>
  <unicode hex="00A2"/>
  <outline>
    <contour>
      <point x="187" y="-14" type="line"/>
      <point x="187" y="84" type="line"/>
      <point x="102" y="92"/>
      <point x="45" y="192"/>
      <point x="45" y="354" type="curve" smooth="yes"/>
      <point x="45" y="518"/>
      <point x="103" y="618"/>
      <point x="187" y="626" type="curve"/>
      <point x="187" y="721" type="line"/>
      <point x="207" y="721" type="line"/>
      <point x="207" y="627" type="line"/>
      <point x="264" y="623"/>
      <point x="297" y="578"/>
      <point x="317" y="527" type="curve"/>
      <point x="300" y="519" type="line"/>
      <point x="280" y="565"/>
      <point x="254" y="609"/>
      <point x="198" y="609" type="curve" smooth="yes"/>
      <point x="117" y="609"/>
      <point x="65" y="511"/>
      <point x="65" y="354" type="curve" smooth="yes"/>
      <point x="65" y="200"/>
      <point x="116" y="102"/>
      <point x="198" y="102" type="curve" smooth="yes"/>
      <point x="252" y="102"/>
      <point x="280" y="145"/>
      <point x="301" y="192" type="curve"/>
      <point x="318" y="184" type="line"/>
      <point x="296" y="132"/>
      <point x="262" y="89"/>
      <point x="207" y="84" type="curve"/>
      <point x="207" y="-14" type="line"/>
    </contour>
  </outline>
</glyph>
<glyph name="sterling" format="1">
  <advance width="388"/>
  <unicode hex="00A3"/>
  <outline>
    <contour>
      <point x="53" y="0" type="line"/>
      <point x="53" y="20" type="line"/>
      <point x="105" y="115"/>
      <point x="124" y="192"/>
      <point x="124" y="260" type="curve" smooth="yes"/>
      <point x="124" y="280"/>
      <point x="122" y="299"/>
      <point x="120" y="317" type="curve"/>
      <point x="52" y="317" type="line"/>
      <point x="52" y="336" type="line"/>
      <point x="117" y="336" type="line"/>
      <point x="102" y="417"/>
      <point x="69" y="486"/>
      <point x="69" y="559" type="curve" smooth="yes"/>
      <point x="69" y="654"/>
      <point x="126" y="709"/>
      <point x="205" y="709" type="curve" smooth="yes"/>
      <point x="297" y="709"/>
      <point x="331" y="642"/>
      <point x="346" y="587" type="curve"/>
      <point x="327" y="581" type="line"/>
      <point x="314" y="630"/>
      <point x="282" y="691"/>
      <point x="205" y="691" type="curve" smooth="yes"/>
      <point x="137" y="691"/>
      <point x="89" y="640"/>
      <point x="89" y="559" type="curve" smooth="yes"/>
      <point x="89" y="488"/>
      <point x="122" y="419"/>
      <point x="137" y="336" type="curve"/>
      <point x="263" y="336" type="line"/>
      <point x="263" y="317" type="line"/>
      <point x="140" y="317" type="line"/>
      <point x="142" y="299"/>
      <point x="144" y="280"/>
      <point x="144" y="260" type="curve" smooth="yes"/>
      <point x="144" y="194"/>
      <point x="121" y="104"/>
      <point x="74" y="20" type="curve"/>
      <point x="354" y="20" type="line"/>
      <point x="354" y="0" type="line"/>
    </contour>
  </outline>
</glyph>
<glyph name="yen" format="1">
  <advance width="414"/>
  <unicode hex="00A5"/>
  <outline>
    <contour>
      <point x="197" y="0" type="line"/>
      <point x="197" y="161" type="line"/>
      <point x="93" y="161" type="line"/>
      <point x="93" y="179" type="line"/>
      <point x="197" y="179" type="line"/>
      <point x="197" y="291" type="line"/>
      <point x="37" y="700" type="line"/>
      <point x="58" y="700" type="line"/>
      <point x="208" y="317" type="line"/>
      <point x="357" y="700" type="line"/>
      <point x="377" y="700" type="line"/>
      <point x="217" y="290" type="line"/>
      <point x="217" y="179" type="line"/>
      <point x="321" y="179" type="line"/>
      <point x="321" y="161" type="line"/>
      <point x="217" y="161" type="line"/>
      <point x="217" y="0" type="line"/>
    </contour>
  </outline>
</glyph>
<glyph name="section" format="1">
  <advance width="410"/>
  <unicode hex="00A7"/>
  <outline>
    <contour>
      <point x="207" y="-162" type="curve" smooth="yes"/>
      <point x="119" y="-162"/>
      <point x="84" y="-90"/>
      <point x="75" y="-49" type="curve"/>
      <point x="93" y="-42" type="line"/>
      <point x="102" y="-79"/>
      <point x="133" y="-144"/>
      <point x="207" y="-144" type="curve" smooth="yes"/>
      <point x="266" y="-144"/>
      <point x="302" y="-100"/>
      <point x="302" y="-39" type="curve" smooth="yes"/>
      <point x="302" y="19"/>
      <point x="278" y="52"/>
      <point x="185" y="103" type="curve" smooth="yes"/>
      <point x="82" y="159"/>
      <point x="43" y="198"/>
      <point x="43" y="289" type="curve" smooth="yes"/>
      <point x="43" y="366"/>
      <point x="92" y="428"/>
      <point x="158" y="461" type="curve"/>
      <point x="102" y="501"/>
      <point x="88" y="537"/>
      <point x="88" y="586" type="curve" smooth="yes"/>
      <point x="88" y="659"/>
      <point x="135" y="709"/>
      <point x="203" y="709" type="curve" smooth="yes"/>
      <point x="291" y="709"/>
      <point x="326" y="637"/>
      <point x="335" y="596" type="curve"/>
      <point x="317" y="589" type="line"/>
      <point x="308" y="626"/>
      <point x="277" y="691"/>
      <point x="203" y="691" type="curve" smooth="yes"/>
      <point x="144" y="691"/>
      <point x="108" y="647"/>
      <point x="108" y="586" type="curve" smooth="yes"/>
      <point x="108" y="528"/>
      <point x="132" y="495"/>
      <point x="225" y="444" type="curve" smooth="yes"/>
      <point x="328" y="388"/>
      <point x="367" y="349"/>
      <point x="367" y="258" type="curve" smooth="yes"/>
      <point x="367" y="181"/>
      <point x="318" y="119"/>
      <point x="251" y="86" type="curve"/>
      <point x="308" y="46"/>
      <point x="322" y="10"/>
      <point x="322" y="-39" type="curve" smooth="yes"/>
      <point x="322" y="-112"/>
      <point x="275" y="-162"/>
    </contour>
    <contour>
      <point x="233" y="98" type="curve"/>
      <point x="301" y="128"/>
      <point x="347" y="186"/>
      <point x="347" y="258" type="curve" smooth="yes"/>
      <point x="347" y="341"/>
      <point x="310" y="376"/>
      <point x="216" y="426" type="curve" smooth="yes"/>
      <point x="201" y="434"/>
      <point x="188" y="441"/>
      <point x="177" y="449" type="curve"/>
      <point x="109" y="419"/>
      <point x="63" y="361"/>
      <point x="63" y="289" type="curve" smooth="yes"/>
      <point x="63" y="206"/>
      <point x="100" y="171"/>
      <point x="194" y="121" type="curve" smooth="yes"/>
      <point x="209" y="113"/>
      <point x="222" y="106"/>
    </contour>
  </outline>
</glyph>
<glyph name="dieresis" format="1">
  <advance width="386"/>
  <unicode hex="00A8"/>
  <outline>
    <contour>
      <point x="263" y="619" type="curve" smooth="yes"/>
      <point x="251" y="619"/>
      <point x="241" y="629"/>
      <point x="241" y="641" type="curve" smooth="yes"/>
      <point x="241" y="653"/>
      <point x="251" y="663"/>
      <point x="263" y="663" type="curve" smooth="yes"/>
      <point x="275" y="663"/>
      <point x="285" y="653"/>
      <point x="285" y="641" type="curve" smooth="yes"/>
      <point x="285" y="629"/>
      <point x="275" y="619"/>
    </contour>
    <contour>
      <point x="124" y="619" type="curve" smooth="yes"/>
      <point x="111" y="619"/>
      <point x="101" y="629"/>
      <point x="101" y="641" type="curve" smooth="yes"/>
      <point x="101" y="653"/>
      <point x="111" y="663"/>
      <point x="124" y="663" type="curve" smooth="yes"/>
      <point x="135" y="663"/>
      <point x="145" y="653"/>
      <point x="145" y="641" type="curve" smooth="yes"/>
      <point x="145" y="629"/>
      <point x="135" y="619"/>
    </contour>
  </outline>
</glyph>
<glyph name="copyright" format="1">
  <advance width="596"/>
  <unicode hex="00A9"/>
  <outline>
    <contour>
      <point x="297" y="-9" type="curve" smooth="yes"/>
      <point x="142" y="-9"/>
      <point x="45" y="145"/>
      <point x="45" y="351" type="curve" smooth="yes"/>
      <point x="45" y="557"/>
      <point x="142" y="712"/>
      <point x="297" y="712" type="curve" smooth="yes"/>
      <point x="453" y="712"/>
      <point x="551" y="557"/>
      <point x="551" y="351" type="curve" smooth="yes"/>
      <point x="551" y="145"/>
      <point x="453" y="-9"/>
    </contour>
    <contour>
      <point x="297" y="4" type="curve" smooth="yes"/>
      <point x="446" y="4"/>
      <point x="536" y="153"/>
      <point x="536" y="351" type="curve" smooth="yes"/>
      <point x="536" y="548"/>
      <point x="446" y="698"/>
      <point x="297" y="698" type="curve" smooth="yes"/>
      <point x="149" y="698"/>
      <point x="59" y="548"/>
      <point x="59" y="351" type="curve" smooth="yes"/>
      <point x="59" y="153"/>
      <point x="149" y="4"/>
    </contour>
    <contour>
      <point x="296" y="144" type="curve" smooth="yes"/>
      <point x="232" y="144"/>
      <point x="190" y="208"/>
      <point x="190" y="351" type="curve" smooth="yes"/>
      <point x="190" y="494"/>
      <point x="233" y="557"/>
      <point x="297" y="557" type="curve" smooth="yes"/>
      <point x="335" y="557"/>
      <point x="364" y="530"/>
      <point x="376" y="480" type="curve"/>
      <point x="362" y="476" type="line"/>
      <point x="352" y="518"/>
      <point x="330" y="542"/>
      <point x="297" y="542" type="curve" smooth="yes"/>
      <point x="240" y="542"/>
      <point x="206" y="480"/>
      <point x="206" y="351" type="curve" smooth="yes"/>
      <point x="206" y="222"/>
      <point x="239" y="159"/>
      <point x="296" y="159" type="curve" smooth="yes"/>
      <point x="332" y="159"/>
      <point x="353" y="191"/>
      <point x="364" y="228" type="curve"/>
      <point x="378" y="224" type="line"/>
      <point x="365" y="179"/>
      <point x="339" y="144"/>
    </contour>
  </outline>
</glyph>
<glyph name="ordfeminine" format="1">
  <advance width="333"/>
  <unicode hex="00AA"/>
  <outline>
    <contour>
      <point x="254" y="512" type="curve"/>
      <point x="254" y="602" type="line" smooth="yes"/>
      <point x="254" y="668"/>
      <point x="230" y="695"/>
      <point x="176" y="695" type="curve" smooth="yes"/>
      <point x="140" y="695"/>
      <point x="105" y="678"/>
      <point x="82" y="661" type="curve"/>
      <point x="72" y="674" type="line"/>
      <point x="99" y="695"/>
      <point x="139" y="711"/>
      <point x="176" y="711" type="curve" smooth="yes"/>
      <point x="242" y="711"/>
      <point x="272" y="682"/>
      <point x="272" y="602" type="curve" smooth="yes"/>
      <point x="272" y="279" type="line"/>
      <point x="254" y="279" type="line"/>
      <point x="254" y="279"/>
      <point x="254" y="332"/>
      <point x="254" y="331" type="curve"/>
      <point x="236" y="306"/>
      <point x="203" y="273"/>
      <point x="153" y="273" type="curve" smooth="yes"/>
      <point x="93" y="273"/>
      <point x="50" y="308"/>
      <point x="50" y="404" type="curve" smooth="yes"/>
      <point x="50" y="501"/>
      <point x="98" y="540"/>
      <point x="161" y="540" type="curve" smooth="yes"/>
      <point x="203" y="540"/>
      <point x="234" y="525"/>
    </contour>
    <contour>
      <point x="254" y="359" type="curve"/>
      <point x="254" y="491" type="line"/>
      <point x="232" y="509"/>
      <point x="196" y="524"/>
      <point x="161" y="524" type="curve" smooth="yes"/>
      <point x="108" y="524"/>
      <point x="68" y="487"/>
      <point x="68" y="404" type="curve" smooth="yes"/>
      <point x="68" y="322"/>
      <point x="104" y="289"/>
      <point x="153" y="289" type="curve" smooth="yes"/>
      <point x="204" y="289"/>
      <point x="240" y="333"/>
    </contour>
  </outline>
</glyph>
<glyph name="guillemotleft" format="1">
  <advance width="400"/>
  <unicode hex="00AB"/>
  <outline>
    <contour>
      <point x="337" y="0" type="line"/>
      <point x="183" y="261" type="line"/>
      <point x="184" y="265" type="line"/>
      <point x="337" y="525" type="line"/>
      <point x="359" y="525" type="line"/>
      <point x="204" y="262" type="line"/>
      <point x="359" y="0" type="line"/>
    </contour>
    <contour>
      <point x="182" y="0" type="line"/>
      <point x="27" y="261" type="line"/>
      <point x="28" y="264" type="line"/>
      <point x="182" y="525" type="line"/>
      <point x="204" y="525" type="line"/>
      <point x="48" y="262" type="line"/>
      <point x="204" y="0" type="line"/>
    </contour>
  </outline>
</glyph>
<glyph name="degree" format="1">
  <advance width="325"/>
  <unicode hex="00B0"/>
  <outline>
    <contour>
      <point x="163" y="460" type="curve" smooth="yes"/>
      <point x="93" y="460"/>
      <point x="43" y="515"/>
      <point x="43" y="585" type="curve" smooth="yes"/>
      <point x="43" y="654"/>
      <point x="93" y="708"/>
      <point x="163" y="708" type="curve" smooth="yes"/>
      <point x="232" y="708"/>
      <point x="282" y="654"/>
      <point x="282" y="585" type="curve" smooth="yes"/>
      <point x="282" y="515"/>
      <point x="232" y="460"/>
    </contour>
    <contour>
      <point x="163" y="477" type="curve" smooth="yes"/>
      <point x="222" y="477"/>
      <point x="265" y="523"/>
      <point x="265" y="585" type="curve" smooth="yes"/>
      <point x="265" y="645"/>
      <point x="222" y="691"/>
      <point x="163" y="691" type="curve" smooth="yes"/>
      <point x="102" y="691"/>
      <point x="60" y="645"/>
      <point x="60" y="585" type="curve" smooth="yes"/>
      <point x="60" y="523"/>
      <point x="102" y="477"/>
    </contour>
  </outline>
</glyph>
<glyph name="acute" format="1">
  <advance width="386"/>
  <unicode hex="00B4"/>
  <outline>
    <contour>
      <point x="181" y="598" type="line"/>
      <point x="269" y="750" type="line"/>
      <point x="295" y="750" type="line"/>
      <point x="196" y="598" type="line"/>
    </contour>
  </outline>
</glyph>
<glyph name="paragraph" format="1">
  <advance width="434"/>
  <unicode hex="00B6"/>
  <outline>
    <contour>
      <point x="256" y="-185" type="line"/>
      <point x="256" y="262" type="line"/>
      <point x="220" y="262" type="line" smooth="yes"/>
      <point x="63" y="262"/>
      <point x="19" y="350"/>
      <point x="19" y="485" type="curve" smooth="yes"/>
      <point x="19" y="625"/>
      <point x="88" y="700"/>
      <point x="221" y="700" type="curve" smooth="yes"/>
      <point x="361" y="700" type="line"/>
      <point x="361" y="-185" type="line"/>
      <point x="341" y="-185" type="line"/>
      <point x="341" y="680" type="line"/>
      <point x="276" y="680" type="line"/>
      <point x="276" y="-185" type="line"/>
    </contour>
    <contour>
      <point x="222" y="282" type="curve" smooth="yes"/>
      <point x="256" y="282" type="line"/>
      <point x="256" y="680" type="line"/>
      <point x="223" y="680" type="line" smooth="yes"/>
      <point x="96" y="680"/>
      <point x="41" y="614"/>
      <point x="41" y="486" type="curve" smooth="yes"/>
      <point x="41" y="363"/>
      <point x="72" y="282"/>
    </contour>
  </outline>
</glyph>
<glyph name="periodcentered" format="1">
  <advance width="190"/>
  <unicode hex="00B7"/>
  <outline>
    <contour>
      <point x="94" y="359" type="curve" smooth="yes"/>
      <point x="81" y="359"/>
      <point x="71" y="369"/>
      <point x="71" y="382" type="curve" smooth="yes"/>
      <point x="71" y="395"/>
      <point x="81" y="406"/>
      <point x="94" y="406" type="curve" smooth="yes"/>
      <point x="106" y="406"/>
      <point x="117" y="395"/>
      <point x="117" y="382" type="curve" smooth="yes"/>
      <point x="117" y="369"/>
      <point x="106" y="359"/>
    </contour>
  </outline>
</glyph>
<glyph name="cedilla" format="1">
  <advance width="386"/>
  <unicode hex="00B8"/>
  <outline>
    <contour>
      <point x="199" y="-184" type="curve" smooth="yes"/>
      <point x="171" y="-184"/>
      <point x="142" y="-172"/>
      <point x="121" y="-153" type="curve"/>
      <point x="131" y="-141" type="line"/>
      <point x="150" y="-158"/>
      <point x="175" y="-168"/>
      <point x="199" y="-168" type="curve" smooth="yes"/>
      <point x="241" y="-168"/>
      <point x="260" y="-143"/>
      <point x="260" y="-106" type="curve" smooth="yes"/>
      <point x="260" y="-80"/>
      <point x="246" y="-63"/>
      <point x="221" y="-63" type="curve" smooth="yes"/>
      <point x="204" y="-63"/>
      <point x="189" y="-69"/>
      <point x="180" y="-77" type="curve"/>
      <point x="168" y="-68" type="line"/>
      <point x="195" y="0" type="line"/>
      <point x="211" y="0" type="line"/>
      <point x="189" y="-58" type="line"/>
      <point x="197" y="-51"/>
      <point x="212" y="-48"/>
      <point x="223" y="-48" type="curve" smooth="yes"/>
      <point x="257" y="-48"/>
      <point x="277" y="-72"/>
      <point x="277" y="-106" type="curve" smooth="yes"/>
      <point x="277" y="-145"/>
      <point x="258" y="-184"/>
    </contour>
  </outline>
</glyph>
<glyph name="ordmasculine" format="1">
  <advance width="358"/>
  <unicode hex="00BA"/>
  <outline>
    <contour>
      <point x="179" y="273" type="curve" smooth="yes"/>
      <point x="97" y="273"/>
      <point x="52" y="354"/>
      <point x="52" y="491" type="curve" smooth="yes"/>
      <point x="52" y="628"/>
      <point x="97" y="711"/>
      <point x="179" y="711" type="curve" smooth="yes"/>
      <point x="261" y="711"/>
      <point x="306" y="628"/>
      <point x="306" y="491" type="curve" smooth="yes"/>
      <point x="306" y="354"/>
      <point x="261" y="273"/>
    </contour>
    <contour>
      <point x="179" y="290" type="curve" smooth="yes"/>
      <point x="252" y="290"/>
      <point x="288" y="368"/>
      <point x="288" y="491" type="curve" smooth="yes"/>
      <point x="288" y="614"/>
      <point x="252" y="694"/>
      <point x="179" y="694" type="curve" smooth="yes"/>
      <point x="106" y="694"/>
      <point x="70" y="614"/>
      <point x="70" y="491" type="curve" smooth="yes"/>
      <point x="70" y="368"/>
      <point x="106" y="290"/>
    </contour>
  </outline>
</glyph>
<glyph name="guillemotright" format="1">
  <advance width="400"/>
  <unicode hex="00BB"/>
  <outline>
    <contour>
      <point x="197" y="0" type="line"/>
      <point x="351" y="262" type="line"/>
      <point x="197" y="525" type="line"/>
      <point x="218" y="525" type="line"/>
      <point x="371" y="265" type="line"/>
      <point x="372" y="261" type="line"/>
      <point x="218" y="0" type="line"/>
    </contour>
    <contour>
      <point x="41" y="0" type="line"/>
      <point x="196" y="262" type="line"/>
      <point x="41" y="525" type="line"/>
      <point x="63" y="525" type="line"/>
      <point x="216" y="264" type="line"/>
      <point x="217" y="261" type="line"/>
      <point x="63" y="0" type="line"/>
    </contour>
  </outline>
</glyph>
<glyph name="questiondown" format="1">
  <advance width="369"/>
  <unicode hex="00BF"/>
  <outline>
    <contour>
      <point x="200" y="703" type="curve" smooth="yes"/>
      <point x="213" y="703"/>
      <point x="223" y="693"/>
      <point x="223" y="680" type="curve" smooth="yes"/>
      <point x="223" y="667"/>
      <point x="213" y="656"/>
      <point x="200" y="656" type="curve" smooth="yes"/>
      <point x="188" y="656"/>
      <point x="177" y="667"/>
      <point x="177" y="680" type="curve" smooth="yes"/>
      <point x="177" y="693"/>
      <point x="188" y="703"/>
    </contour>
    <contour>
      <point x="211" y="559" type="line"/>
      <point x="211" y="425"/>
      <point x="199" y="379"/>
      <point x="149" y="318" type="curve" smooth="yes"/>
      <point x="100" y="259"/>
      <point x="72" y="213"/>
      <point x="72" y="139" type="curve" smooth="yes"/>
      <point x="72" y="60"/>
      <point x="116" y="9"/>
      <point x="183" y="9" type="curve" smooth="yes"/>
      <point x="264" y="9"/>
      <point x="296" y="78"/>
      <point x="314" y="126" type="curve"/>
      <point x="332" y="120" type="line"/>
      <point x="314" y="68"/>
      <point x="274" y="-9"/>
      <point x="183" y="-9" type="curve" smooth="yes"/>
      <point x="104" y="-9"/>
      <point x="52" y="49"/>
      <point x="52" y="139" type="curve" smooth="yes"/>
      <point x="52" y="221"/>
      <point x="84" y="268"/>
      <point x="135" y="330" type="curve" smooth="yes"/>
      <point x="181" y="386"/>
      <point x="191" y="433"/>
      <point x="191" y="559" type="curve"/>
    </contour>
  </outline>
</glyph>
<glyph name="Aring" format="1">
  <advance width="457"/>
  <unicode hex="00C5"/>
  <outline>
    <contour>
      <point x="228" y="760" type="curve" smooth="yes"/>
      <point x="184" y="760"/>
      <point x="149" y="796"/>
      <point x="149" y="840" type="curve" smooth="yes"/>
      <point x="149" y="884"/>
      <point x="184" y="919"/>
      <point x="228" y="919" type="curve" smooth="yes"/>
      <point x="273" y="919"/>
      <point x="308" y="884"/>
      <point x="308" y="840" type="curve" smooth="yes"/>
      <point x="308" y="796"/>
      <point x="273" y="760"/>
    </contour>
    <contour>
      <point x="116" y="204" type="line"/>
      <point x="117" y="204"/>
      <point x="68" y="0"/>
      <point x="68" y="0" type="curve"/>
      <point x="49" y="0" type="line"/>
      <point x="217" y="703" type="line"/>
      <point x="240" y="703" type="line"/>
      <point x="408" y="0" type="line"/>
      <point x="388" y="0" type="line"/>
      <point x="340" y="204" type="line"/>
    </contour>
    <contour>
      <point x="228" y="774" type="curve" smooth="yes"/>
      <point x="265" y="774"/>
      <point x="294" y="803"/>
      <point x="294" y="840" type="curve" smooth="yes"/>
      <point x="294" y="877"/>
      <point x="265" y="905"/>
      <point x="228" y="905" type="curve" smooth="yes"/>
      <point x="191" y="905"/>
      <point x="163" y="877"/>
      <point x="163" y="840" type="curve" smooth="yes"/>
      <point x="163" y="803"/>
      <point x="191" y="774"/>
    </contour>
    <contour>
      <point x="335" y="223" type="line" smooth="yes"/>
      <point x="336" y="223"/>
      <point x="228" y="677"/>
      <point x="228" y="677" type="curve"/>
      <point x="121" y="223" type="line"/>
    </contour>
  </outline>
</glyph>
<glyph name="AE" format="1">
  <advance width="636"/>
  <unicode hex="00C6"/>
  <outline>
    <contour>
      <point x="19" y="0" type="line"/>
      <point x="336" y="700" type="line"/>
      <point x="594" y="700" type="line"/>
      <point x="594" y="681" type="line"/>
      <point x="361" y="681" type="line"/>
      <point x="361" y="384" type="line"/>
      <point x="514" y="384" type="line"/>
      <point x="514" y="364" type="line"/>
      <point x="361" y="364" type="line"/>
      <point x="361" y="19" type="line"/>
      <point x="606" y="19" type="line"/>
      <point x="606" y="0" type="line"/>
      <point x="342" y="0" type="line"/>
      <point x="342" y="205" type="line"/>
      <point x="131" y="205" type="line"/>
      <point x="39" y="0" type="line"/>
    </contour>
    <contour>
      <point x="140" y="224" type="line"/>
      <point x="342" y="224" type="line"/>
      <point x="342" y="673" type="line"/>
    </contour>
  </outline>
</glyph>
<glyph name="Ccedilla" format="1">
  <advance width="420"/>
  <unicode hex="00C7"/>
  <outline>
    <contour>
      <point x="209" y="-7" type="line"/>
      <point x="113" y="9"/>
      <point x="55" y="121"/>
      <point x="55" y="350" type="curve" smooth="yes"/>
      <point x="55" y="596"/>
      <point x="125" y="709"/>
      <point x="235" y="709" type="curve" smooth="yes"/>
      <point x="305" y="709"/>
      <point x="348" y="658"/>
      <point x="368" y="577" type="curve"/>
      <point x="349" y="572" type="line"/>
      <point x="331" y="645"/>
      <point x="295" y="691"/>
      <point x="235" y="691" type="curve" smooth="yes"/>
      <point x="135" y="691"/>
      <point x="75" y="580"/>
      <point x="75" y="350" type="curve" smooth="yes"/>
      <point x="75" y="119"/>
      <point x="134" y="9"/>
      <point x="234" y="9" type="curve" smooth="yes"/>
      <point x="295" y="9"/>
      <point x="330" y="58"/>
      <point x="353" y="133" type="curve"/>
      <point x="372" y="128" type="line"/>
      <point x="347" y="47"/>
      <point x="307" y="-9"/>
      <point x="233" y="-9" type="curve" smooth="yes"/>
      <point x="230" y="-9"/>
      <point x="227" y="-9"/>
      <point x="225" y="-9" type="curve"/>
      <point x="206" y="-58" type="line"/>
      <point x="214" y="-51"/>
      <point x="229" y="-48"/>
      <point x="240" y="-48" type="curve" smooth="yes"/>
      <point x="274" y="-48"/>
      <point x="294" y="-72"/>
      <point x="294" y="-106" type="curve" smooth="yes"/>
      <point x="294" y="-145"/>
      <point x="275" y="-184"/>
      <point x="216" y="-184" type="curve" smooth="yes"/>
      <point x="188" y="-184"/>
      <point x="159" y="-172"/>
      <point x="138" y="-153" type="curve"/>
      <point x="148" y="-141" type="line"/>
      <point x="167" y="-158"/>
      <point x="192" y="-168"/>
      <point x="216" y="-168" type="curve" smooth="yes"/>
      <point x="258" y="-168"/>
      <point x="277" y="-143"/>
      <point x="277" y="-106" type="curve" smooth="yes"/>
      <point x="277" y="-80"/>
      <point x="263" y="-63"/>
      <point x="238" y="-63" type="curve" smooth="yes"/>
      <point x="221" y="-63"/>
      <point x="206" y="-69"/>
      <point x="197" y="-77" type="curve"/>
      <point x="185" y="-68" type="line"/>
    </contour>
  </outline>
</glyph>
<glyph name="Eth" format="1">
  <advance width="462"/>
  <unicode hex="00D0"/>
  <outline>
    <contour>
      <point x="82" y="0" type="line"/>
      <point x="82" y="356" type="line"/>
      <point x="26" y="356" type="line"/>
      <point x="26" y="375" type="line"/>
      <point x="82" y="375" type="line"/>
      <point x="82" y="700" type="line"/>
      <point x="193" y="700" type="line" smooth="yes"/>
      <point x="338" y="700"/>
      <point x="408" y="600"/>
      <point x="408" y="351" type="curve" smooth="yes"/>
      <point x="408" y="97"/>
      <point x="336" y="0"/>
      <point x="191" y="0" type="curve" smooth="yes"/>
    </contour>
    <contour>
      <point x="102" y="19" type="line"/>
      <point x="191" y="19" type="line" smooth="yes"/>
      <point x="326" y="19"/>
      <point x="388" y="113"/>
      <point x="388" y="351" type="curve" smooth="yes"/>
      <point x="388" y="584"/>
      <point x="328" y="681"/>
      <point x="193" y="681" type="curve" smooth="yes"/>
      <point x="102" y="681" type="line"/>
      <point x="102" y="375" type="line"/>
      <point x="215" y="375" type="line"/>
      <point x="215" y="356" type="line"/>
      <point x="102" y="356" type="line"/>
    </contour>
  </outline>
</glyph>
<glyph name="Oslash" format="1">
  <advance width="478"/>
  <unicode hex="00D8"/>
  <outline>
    <contour>
      <point x="81" y="-50" type="line"/>
      <point x="119" y="53" type="line"/>
      <point x="79" y="109"/>
      <point x="55" y="207"/>
      <point x="55" y="350" type="curve" smooth="yes"/>
      <point x="55" y="600"/>
      <point x="126" y="709"/>
      <point x="239" y="709" type="curve" smooth="yes"/>
      <point x="281" y="709"/>
      <point x="317" y="694"/>
      <point x="346" y="662" type="curve"/>
      <point x="379" y="750" type="line"/>
      <point x="396" y="750" type="line"/>
      <point x="358" y="648" type="line"/>
      <point x="399" y="591"/>
      <point x="423" y="494"/>
      <point x="423" y="350" type="curve" smooth="yes"/>
      <point x="423" y="100"/>
      <point x="352" y="-9"/>
      <point x="239" y="-9" type="curve" smooth="yes"/>
      <point x="197" y="-9"/>
      <point x="160" y="6"/>
      <point x="131" y="39" type="curve"/>
      <point x="98" y="-50" type="line"/>
    </contour>
    <contour>
      <point x="128" y="75" type="curve"/>
      <point x="339" y="642" type="line"/>
      <point x="312" y="675"/>
      <point x="279" y="691"/>
      <point x="239" y="691" type="curve" smooth="yes"/>
      <point x="136" y="691"/>
      <point x="75" y="584"/>
      <point x="75" y="350" type="curve" smooth="yes"/>
      <point x="75" y="221"/>
      <point x="94" y="130"/>
    </contour>
    <contour>
      <point x="239" y="9" type="curve" smooth="yes"/>
      <point x="342" y="9"/>
      <point x="403" y="116"/>
      <point x="403" y="350" type="curve" smooth="yes"/>
      <point x="403" y="480"/>
      <point x="384" y="571"/>
      <point x="350" y="626" type="curve"/>
      <point x="139" y="59" type="line"/>
      <point x="165" y="25"/>
      <point x="199" y="9"/>
    </contour>
  </outline>
</glyph>
<glyph name="Thorn" format="1">
  <advance width="400"/>
  <unicode hex="00DE"/>
  <outline>
    <contour>
      <point x="72" y="0" type="line"/>
      <point x="72" y="700" type="line"/>
      <point x="92" y="700" type="line"/>
      <point x="92" y="546" type="line"/>
      <point x="182" y="546" type="line" smooth="yes"/>
      <point x="293" y="546"/>
      <point x="365" y="502"/>
      <point x="365" y="364" type="curve" smooth="yes"/>
      <point x="365" y="226"/>
      <point x="287" y="173"/>
      <point x="176" y="173" type="curve" smooth="yes"/>
      <point x="92" y="173" type="line"/>
      <point x="92" y="0" type="line"/>
    </contour>
    <contour>
      <point x="92" y="192" type="line"/>
      <point x="176" y="192" type="line" smooth="yes"/>
      <point x="275" y="192"/>
      <point x="345" y="238"/>
      <point x="345" y="364" type="curve" smooth="yes"/>
      <point x="345" y="488"/>
      <point x="281" y="527"/>
      <point x="182" y="527" type="curve" smooth="yes"/>
      <point x="92" y="527" type="line"/>
    </contour>
  </outline>
</glyph>
<glyph name="germandbls" format="1">
  <advance width="411"/>
  <unicode hex="00DF"/>
  <outline>
    <contour>
      <point x="64" y="-187" type="line"/>
      <point x="64" y="543" type="line" smooth="yes"/>
      <point x="64" y="664"/>
      <point x="112" y="724"/>
      <point x="194" y="724" type="curve" smooth="yes"/>
      <point x="278" y="724"/>
      <point x="325" y="662"/>
      <point x="325" y="563" type="curve" smooth="yes"/>
      <point x="325" y="463"/>
      <point x="282" y="413"/>
      <point x="226" y="403" type="curve"/>
      <point x="286" y="398"/>
      <point x="365" y="353"/>
      <point x="365" y="215" type="curve" smooth="yes"/>
      <point x="365" y="63"/>
      <point x="301" y="0"/>
      <point x="187" y="0" type="curve" smooth="yes"/>
      <point x="177" y="0" type="line"/>
      <point x="177" y="19" type="line"/>
      <point x="188" y="19" type="line" smooth="yes"/>
      <point x="292" y="19"/>
      <point x="346" y="77"/>
      <point x="346" y="214" type="curve" smooth="yes"/>
      <point x="346" y="334"/>
      <point x="289" y="392"/>
      <point x="189" y="392" type="curve" smooth="yes"/>
      <point x="177" y="392" type="line"/>
      <point x="177" y="411" type="line"/>
      <point x="179" y="411"/>
      <point x="187" y="411"/>
      <point x="188" y="411" type="curve" smooth="yes"/>
      <point x="264" y="412"/>
      <point x="305" y="461"/>
      <point x="305" y="563" type="curve" smooth="yes"/>
      <point x="305" y="651"/>
      <point x="266" y="706"/>
      <point x="194" y="706" type="curve" smooth="yes"/>
      <point x="125" y="706"/>
      <point x="83" y="652"/>
      <point x="83" y="544" type="curve" smooth="yes"/>
      <point x="83" y="-176" type="line"/>
    </contour>
  </outline>
</glyph>
<glyph name="ae" format="1">
  <advance width="642"/>
  <unicode hex="00E6"/>
  <outline>
    <contour>
      <point x="169" y="-9" type="curve" smooth="yes"/>
      <point x="104" y="-9"/>
      <point x="40" y="34"/>
      <point x="40" y="155" type="curve" smooth="yes"/>
      <point x="40" y="274"/>
      <point x="101" y="323"/>
      <point x="179" y="323" type="curve" smooth="yes"/>
      <point x="227" y="323"/>
      <point x="273" y="305"/>
      <point x="300" y="288" type="curve"/>
      <point x="300" y="398" type="line" smooth="yes"/>
      <point x="300" y="482"/>
      <point x="271" y="516"/>
      <point x="200" y="516" type="curve" smooth="yes"/>
      <point x="153" y="516"/>
      <point x="111" y="497"/>
      <point x="79" y="472" type="curve"/>
      <point x="69" y="487" type="line"/>
      <point x="102" y="513"/>
      <point x="149" y="534"/>
      <point x="200" y="534" type="curve" smooth="yes"/>
      <point x="282" y="534"/>
      <point x="319" y="497"/>
      <point x="319" y="401" type="curve"/>
      <point x="336" y="475"/>
      <point x="383" y="534"/>
      <point x="452" y="534" type="curve" smooth="yes"/>
      <point x="546" y="534"/>
      <point x="594" y="428"/>
      <point x="594" y="272" type="curve" smooth="yes"/>
      <point x="594" y="267"/>
      <point x="594" y="261"/>
      <point x="594" y="258" type="curve"/>
      <point x="319" y="258" type="line"/>
      <point x="319" y="258"/>
      <point x="319" y="256"/>
      <point x="319" y="255" type="curve" smooth="yes"/>
      <point x="320" y="106"/>
      <point x="371" y="9"/>
      <point x="452" y="9" type="curve" smooth="yes"/>
      <point x="503" y="9"/>
      <point x="539" y="35"/>
      <point x="569" y="88" type="curve"/>
      <point x="584" y="79" type="line"/>
      <point x="552" y="22"/>
      <point x="508" y="-9"/>
      <point x="451" y="-9" type="curve" smooth="yes"/>
      <point x="396" y="-9"/>
      <point x="353" y="27"/>
      <point x="327" y="95" type="curve"/>
      <point x="300" y="52"/>
      <point x="249" y="-9"/>
    </contour>
    <contour>
      <point x="319" y="276" type="curve"/>
      <point x="575" y="276" type="line" smooth="yes"/>
      <point x="577" y="276"/>
      <point x="575" y="281"/>
      <point x="575" y="282" type="curve" smooth="yes"/>
      <point x="573" y="418"/>
      <point x="532" y="516"/>
      <point x="452" y="516" type="curve" smooth="yes"/>
      <point x="375" y="516"/>
      <point x="321" y="424"/>
    </contour>
    <contour>
      <point x="169" y="9" type="curve" smooth="yes"/>
      <point x="241" y="9"/>
      <point x="288" y="62"/>
      <point x="321" y="113" type="curve"/>
      <point x="308" y="155"/>
      <point x="301" y="206"/>
      <point x="301" y="267" type="curve"/>
      <point x="269" y="288"/>
      <point x="229" y="305"/>
      <point x="179" y="305" type="curve" smooth="yes"/>
      <point x="110" y="305"/>
      <point x="60" y="258"/>
      <point x="60" y="155" type="curve" smooth="yes"/>
      <point x="60" y="50"/>
      <point x="115" y="9"/>
    </contour>
  </outline>
</glyph>
<glyph name="ccedilla" format="1">
  <advance width="356"/>
  <unicode hex="00E7"/>
  <outline>
    <contour>
      <point x="177" y="-7" type="line"/>
      <point x="97" y="6"/>
      <point x="45" y="106"/>
      <point x="45" y="261" type="curve" smooth="yes"/>
      <point x="45" y="432"/>
      <point x="108" y="534"/>
      <point x="198" y="534" type="curve" smooth="yes"/>
      <point x="261" y="534"/>
      <point x="296" y="488"/>
      <point x="317" y="434" type="curve"/>
      <point x="300" y="426" type="line"/>
      <point x="280" y="472"/>
      <point x="254" y="516"/>
      <point x="198" y="516" type="curve" smooth="yes"/>
      <point x="117" y="516"/>
      <point x="65" y="418"/>
      <point x="65" y="261" type="curve" smooth="yes"/>
      <point x="65" y="107"/>
      <point x="116" y="9"/>
      <point x="198" y="9" type="curve" smooth="yes"/>
      <point x="252" y="9"/>
      <point x="280" y="52"/>
      <point x="301" y="99" type="curve"/>
      <point x="318" y="91" type="line"/>
      <point x="295" y="36"/>
      <point x="258" y="-9"/>
      <point x="197" y="-9" type="curve" smooth="yes"/>
      <point x="196" y="-9"/>
      <point x="194" y="-9"/>
      <point x="193" y="-9" type="curve"/>
      <point x="174" y="-58" type="line"/>
      <point x="182" y="-51"/>
      <point x="197" y="-48"/>
      <point x="208" y="-48" type="curve" smooth="yes"/>
      <point x="242" y="-48"/>
      <point x="262" y="-72"/>
      <point x="262" y="-106" type="curve" smooth="yes"/>
      <point x="262" y="-145"/>
      <point x="243" y="-184"/>
      <point x="184" y="-184" type="curve" smooth="yes"/>
      <point x="156" y="-184"/>
      <point x="127" y="-172"/>
      <point x="106" y="-153" type="curve"/>
      <point x="116" y="-141" type="line"/>
      <point x="135" y="-158"/>
      <point x="160" y="-168"/>
      <point x="184" y="-168" type="curve" smooth="yes"/>
      <point x="226" y="-168"/>
      <point x="245" y="-143"/>
      <point x="245" y="-106" type="curve" smooth="yes"/>
      <point x="245" y="-80"/>
      <point x="231" y="-63"/>
      <point x="206" y="-63" type="curve" smooth="yes"/>
      <point x="189" y="-63"/>
      <point x="174" y="-69"/>
      <point x="165" y="-77" type="curve"/>
      <point x="153" y="-68" type="line"/>
    </contour>
  </outline>
</glyph>
<glyph name="eth" format="1">
  <advance width="423"/>
  <unicode hex="00F0"/>
  <outline>
    <contour>
      <point x="213" y="-9" type="curve" smooth="yes"/>
      <point x="106" y="-9"/>
      <point x="45" y="97"/>
      <point x="45" y="237" type="curve" smooth="yes"/>
      <point x="45" y="383"/>
      <point x="108" y="483"/>
      <point x="208" y="483" type="curve" smooth="yes"/>
      <point x="270" y="483"/>
      <point x="320" y="452"/>
      <point x="355" y="382" type="curve"/>
      <point x="347" y="443"/>
      <point x="330" y="494"/>
      <point x="309" y="536" type="curve" smooth="yes"/>
      <point x="293" y="569"/>
      <point x="274" y="596"/>
      <point x="253" y="618" type="curve"/>
      <point x="254" y="618"/>
      <point x="201" y="560"/>
      <point x="201" y="560" type="curve"/>
      <point x="188" y="571" type="line"/>
      <point x="241" y="631" type="line"/>
      <point x="206" y="666"/>
      <point x="167" y="689"/>
      <point x="132" y="702" type="curve"/>
      <point x="140" y="720" type="line"/>
      <point x="176" y="707"/>
      <point x="217" y="683"/>
      <point x="254" y="646" type="curve"/>
      <point x="300" y="697" type="line"/>
      <point x="313" y="685" type="line"/>
      <point x="267" y="633" type="line"/>
      <point x="289" y="609"/>
      <point x="310" y="580"/>
      <point x="327" y="544" type="curve" smooth="yes"/>
      <point x="360" y="477"/>
      <point x="383" y="388"/>
      <point x="383" y="272" type="curve" smooth="yes"/>
      <point x="383" y="123"/>
      <point x="342" y="-9"/>
    </contour>
    <contour>
      <point x="213" y="9" type="curve" smooth="yes"/>
      <point x="329" y="9"/>
      <point x="363" y="135"/>
      <point x="363" y="272" type="curve" smooth="yes"/>
      <point x="363" y="292"/>
      <point x="362" y="311"/>
      <point x="361" y="329" type="curve"/>
      <point x="327" y="426"/>
      <point x="272" y="465"/>
      <point x="208" y="465" type="curve" smooth="yes"/>
      <point x="120" y="465"/>
      <point x="65" y="369"/>
      <point x="65" y="237" type="curve" smooth="yes"/>
      <point x="65" y="110"/>
      <point x="118" y="9"/>
    </contour>
  </outline>
</glyph>
<glyph name="oslash" format="1">
  <advance width="409"/>
  <unicode hex="00F8"/>
  <outline>
    <contour>
      <point x="66" y="-50" type="line"/>
      <point x="104" y="40" type="line"/>
      <point x="66" y="86"/>
      <point x="45" y="163"/>
      <point x="45" y="262" type="curve" smooth="yes"/>
      <point x="45" y="430"/>
      <point x="105" y="534"/>
      <point x="205" y="534" type="curve" smooth="yes"/>
      <point x="240" y="534"/>
      <point x="270" y="521"/>
      <point x="294" y="498" type="curve"/>
      <point x="326" y="575" type="line"/>
      <point x="344" y="575" type="line"/>
      <point x="306" y="484" type="line"/>
      <point x="344" y="438"/>
      <point x="364" y="361"/>
      <point x="364" y="262" type="curve" smooth="yes"/>
      <point x="364" y="94"/>
      <point x="305" y="-9"/>
      <point x="205" y="-9" type="curve" smooth="yes"/>
      <point x="170" y="-9"/>
      <point x="140" y="3"/>
      <point x="116" y="27" type="curve"/>
      <point x="84" y="-50" type="line"/>
    </contour>
    <contour>
      <point x="112" y="60" type="curve"/>
      <point x="286" y="479" type="line"/>
      <point x="265" y="503"/>
      <point x="238" y="516"/>
      <point x="205" y="516" type="curve" smooth="yes"/>
      <point x="114" y="516"/>
      <point x="65" y="416"/>
      <point x="65" y="262" type="curve" smooth="yes"/>
      <point x="65" y="174"/>
      <point x="81" y="104"/>
    </contour>
    <contour>
      <point x="205" y="9" type="curve" smooth="yes"/>
      <point x="296" y="9"/>
      <point x="344" y="108"/>
      <point x="344" y="262" type="curve" smooth="yes"/>
      <point x="344" y="350"/>
      <point x="328" y="420"/>
      <point x="298" y="464" type="curve"/>
      <point x="124" y="45" type="line"/>
      <point x="145" y="22"/>
      <point x="172" y="9"/>
    </contour>
  </outline>
</glyph>
<glyph name="thorn" format="1">
  <advance width="397"/>
  <unicode hex="00FE"/>
  <outline>
    <contour>
      <point x="65" y="-187" type="line"/>
      <point x="65" y="718" type="line"/>
      <point x="84" y="729" type="line"/>
      <point x="84" y="465" type="line"/>
      <point x="112" y="500"/>
      <point x="154" y="534"/>
      <point x="210" y="534" type="curve" smooth="yes"/>
      <point x="296" y="534"/>
      <point x="352" y="460"/>
      <point x="352" y="264" type="curve" smooth="yes"/>
      <point x="352" y="66"/>
      <point x="296" y="-9"/>
      <point x="210" y="-9" type="curve" smooth="yes"/>
      <point x="149" y="-9"/>
      <point x="106" y="29"/>
      <point x="84" y="58" type="curve"/>
      <point x="84" y="-176" type="line"/>
    </contour>
    <contour>
      <point x="210" y="9" type="curve" smooth="yes"/>
      <point x="288" y="9"/>
      <point x="332" y="84"/>
      <point x="332" y="264" type="curve" smooth="yes"/>
      <point x="332" y="442"/>
      <point x="286" y="516"/>
      <point x="210" y="516" type="curve" smooth="yes"/>
      <point x="148" y="516"/>
      <point x="109" y="474"/>
      <point x="84" y="439" type="curve"/>
      <point x="84" y="85" type="line"/>
      <point x="111" y="46"/>
      <point x="152" y="9"/>
    </contour>
  </outline>
</glyph>
<glyph name="dotlessi" format="1">
  <advance width="160"/>
  <unicode hex="0131"/>
  <outline>
    <contour>
      <point x="70" y="0" type="line"/>
      <point x="70" y="525" type="line"/>
      <point x="89" y="525" type="line"/>
      <point x="89" y="0" type="line"/>
    </contour>
  </outline>
</glyph>
<glyph name="Lslash" format="1">
  <advance width="349"/>
  <unicode hex="0141"/>
  <outline>
    <contour>
      <point x="82" y="0" type="line"/>
      <point x="82" y="279" type="line"/>
      <point x="42" y="244" type="line"/>
      <point x="42" y="267" type="line"/>
      <point x="82" y="304" type="line"/>
      <point x="82" y="700" type="line"/>
      <point x="102" y="700" type="line"/>
      <point x="102" y="319" type="line"/>
      <point x="211" y="417" type="line"/>
      <point x="211" y="394" type="line"/>
      <point x="102" y="296" type="line"/>
      <point x="102" y="19" type="line"/>
      <point x="324" y="19" type="line"/>
      <point x="324" y="0" type="line"/>
    </contour>
  </outline>
</glyph>
<glyph name="lslash" format="1">
  <advance width="192"/>
  <unicode hex="0142"/>
  <outline>
    <contour>
      <point x="86" y="0" type="line"/>
      <point x="86" y="293" type="line"/>
      <point x="42" y="254" type="line"/>
      <point x="42" y="278" type="line"/>
      <point x="86" y="318" type="line"/>
      <point x="86" y="718" type="line"/>
      <point x="105" y="729" type="line"/>
      <point x="105" y="335" type="line"/>
      <point x="150" y="376" type="line"/>
      <point x="150" y="351" type="line"/>
      <point x="105" y="310" type="line"/>
      <point x="105" y="0" type="line"/>
    </contour>
  </outline>
</glyph>
<glyph name="OE" format="1">
  <advance width="698"/>
  <unicode hex="0152"/>
  <outline>
    <contour>
      <point x="239" y="-9" type="curve" smooth="yes"/>
      <point x="126" y="-9"/>
      <point x="55" y="100"/>
      <point x="55" y="350" type="curve" smooth="yes"/>
      <point x="55" y="600"/>
      <point x="126" y="709"/>
      <point x="239" y="709" type="curve" smooth="yes"/>
      <point x="322" y="709"/>
      <point x="377" y="655"/>
      <point x="404" y="523" type="curve"/>
      <point x="404" y="700" type="line"/>
      <point x="656" y="700" type="line"/>
      <point x="656" y="681" type="line"/>
      <point x="424" y="681" type="line"/>
      <point x="424" y="384" type="line"/>
      <point x="575" y="384" type="line"/>
      <point x="575" y="365" type="line"/>
      <point x="424" y="365" type="line"/>
      <point x="424" y="19" type="line"/>
      <point x="668" y="19" type="line"/>
      <point x="668" y="0" type="line"/>
      <point x="404" y="0" type="line"/>
      <point x="404" y="176" type="line"/>
      <point x="377" y="44"/>
      <point x="322" y="-9"/>
    </contour>
    <contour>
      <point x="239" y="9" type="curve" smooth="yes"/>
      <point x="342" y="9"/>
      <point x="403" y="116"/>
      <point x="403" y="350" type="curve" smooth="yes"/>
      <point x="403" y="584"/>
      <point x="342" y="691"/>
      <point x="239" y="691" type="curve" smooth="yes"/>
      <point x="136" y="691"/>
      <point x="75" y="584"/>
      <point x="75" y="350" type="curve" smooth="yes"/>
      <point x="75" y="116"/>
      <point x="136" y="9"/>
    </contour>
  </outline>
</glyph>
<glyph name="oe" format="1">
  <advance width="685"/>
  <unicode hex="0153"/>
  <outline>
    <contour>
      <point x="205" y="-9" type="curve" smooth="yes"/>
      <point x="105" y="-9"/>
      <point x="45" y="94"/>
      <point x="45" y="262" type="curve" smooth="yes"/>
      <point x="45" y="430"/>
      <point x="105" y="534"/>
      <point x="205" y="534" type="curve" smooth="yes"/>
      <point x="284" y="534"/>
      <point x="335" y="469"/>
      <point x="354" y="359" type="curve"/>
      <point x="373" y="470"/>
      <point x="426" y="534"/>
      <point x="497" y="534" type="curve" smooth="yes"/>
      <point x="591" y="534"/>
      <point x="639" y="428"/>
      <point x="639" y="272" type="curve" smooth="yes"/>
      <point x="639" y="267"/>
      <point x="639" y="261"/>
      <point x="639" y="258" type="curve"/>
      <point x="364" y="258" type="line"/>
      <point x="364" y="258"/>
      <point x="364" y="256"/>
      <point x="364" y="255" type="curve" smooth="yes"/>
      <point x="365" y="106"/>
      <point x="416" y="9"/>
      <point x="497" y="9" type="curve" smooth="yes"/>
      <point x="548" y="9"/>
      <point x="584" y="35"/>
      <point x="614" y="88" type="curve"/>
      <point x="629" y="79" type="line"/>
      <point x="597" y="22"/>
      <point x="553" y="-9"/>
      <point x="496" y="-9" type="curve" smooth="yes"/>
      <point x="424" y="-9"/>
      <point x="373" y="55"/>
      <point x="354" y="164" type="curve"/>
      <point x="335" y="55"/>
      <point x="284" y="-9"/>
    </contour>
    <contour>
      <point x="364" y="276" type="curve"/>
      <point x="620" y="276" type="line"/>
      <point x="620" y="278"/>
      <point x="620" y="281"/>
      <point x="620" y="282" type="curve" smooth="yes"/>
      <point x="618" y="418"/>
      <point x="577" y="516"/>
      <point x="497" y="516" type="curve" smooth="yes"/>
      <point x="420" y="516"/>
      <point x="366" y="424"/>
    </contour>
    <contour>
      <point x="205" y="9" type="curve" smooth="yes"/>
      <point x="296" y="9"/>
      <point x="344" y="108"/>
      <point x="344" y="262" type="curve" smooth="yes"/>
      <point x="344" y="416"/>
      <point x="296" y="516"/>
      <point x="205" y="516" type="curve" smooth="yes"/>
      <point x="114" y="516"/>
      <point x="65" y="416"/>
      <point x="65" y="262" type="curve" smooth="yes"/>
      <point x="65" y="108"/>
      <point x="114" y="9"/>
    </contour>
  </outline>
</glyph>
<glyph name="florin" format="1">
  <advance width="250"/>
  <unicode hex="0192"/>
  <outline>
    <contour>
      <point x="92" y="-187" type="line"/>
      <point x="92" y="498" type="line"/>
      <point x="31" y="498" type="line"/>
      <point x="31" y="515" type="line"/>
      <point x="92" y="515" type="line"/>
      <point x="92" y="605" type="line" smooth="yes"/>
      <point x="92" y="680"/>
      <point x="127" y="708"/>
      <point x="177" y="708" type="curve" smooth="yes"/>
      <point x="198" y="708"/>
      <point x="222" y="704"/>
      <point x="228" y="701" type="curve"/>
      <point x="226" y="683" type="line"/>
      <point x="218" y="687"/>
      <point x="194" y="690"/>
      <point x="179" y="690" type="curve" smooth="yes"/>
      <point x="136" y="690"/>
      <point x="111" y="668"/>
      <point x="111" y="606" type="curve" smooth="yes"/>
      <point x="111" y="515" type="line"/>
      <point x="214" y="515" type="line"/>
      <point x="214" y="498" type="line"/>
      <point x="111" y="498" type="line"/>
      <point x="111" y="-176" type="line"/>
    </contour>
  </outline>
</glyph>
<glyph name="circumflex" format="1">
  <advance width="386"/>
  <unicode hex="02C6"/>
  <outline>
    <contour>
      <point x="83" y="598" type="line"/>
      <point x="184" y="750" type="line"/>
      <point x="203" y="750" type="line"/>
      <point x="303" y="598" type="line"/>
      <point x="287" y="598" type="line"/>
      <point x="193" y="730" type="line"/>
      <point x="99" y="598" type="line"/>
    </contour>
  </outline>
</glyph>
<glyph name="caron" format="1">
  <advance width="386"/>
  <unicode hex="02C7"/>
  <outline>
    <contour>
      <point x="303" y="750" type="line"/>
      <point x="202" y="598" type="line"/>
      <point x="183" y="598" type="line"/>
      <point x="83" y="750" type="line"/>
      <point x="99" y="750" type="line"/>
      <point x="193" y="618" type="line"/>
      <point x="287" y="750" type="line"/>
    </contour>
  </outline>
</glyph>
<glyph name="breve" format="1">
  <advance width="386"/>
  <unicode hex="02D8"/>
  <outline>
    <contour>
      <point x="186" y="596" type="curve" smooth="yes"/>
      <point x="116" y="596"/>
      <point x="75" y="651"/>
      <point x="71" y="732" type="curve"/>
      <point x="88" y="732" type="line"/>
      <point x="92" y="660"/>
      <point x="126" y="613"/>
      <point x="186" y="613" type="curve" smooth="yes"/>
      <point x="246" y="613"/>
      <point x="280" y="659"/>
      <point x="284" y="732" type="curve"/>
      <point x="301" y="732" type="line"/>
      <point x="297" y="651"/>
      <point x="256" y="596"/>
    </contour>
  </outline>
</glyph>
<glyph name="dotaccent" format="1">
  <advance width="386"/>
  <unicode hex="02D9"/>
  <outline>
    <contour>
      <point x="194" y="612" type="curve" smooth="yes"/>
      <point x="180" y="612"/>
      <point x="170" y="622"/>
      <point x="170" y="635" type="curve" smooth="yes"/>
      <point x="170" y="648"/>
      <point x="180" y="658"/>
      <point x="194" y="658" type="curve" smooth="yes"/>
      <point x="206" y="658"/>
      <point x="216" y="648"/>
      <point x="216" y="635" type="curve" smooth="yes"/>
      <point x="216" y="622"/>
      <point x="206" y="612"/>
    </contour>
  </outline>
</glyph>
<glyph name="ring" format="1">
  <advance width="386"/>
  <unicode hex="02DA"/>
  <outline>
    <contour>
      <point x="193" y="610" type="curve" smooth="yes"/>
      <point x="149" y="610"/>
      <point x="114" y="646"/>
      <point x="114" y="690" type="curve" smooth="yes"/>
      <point x="114" y="734"/>
      <point x="149" y="769"/>
      <point x="193" y="769" type="curve" smooth="yes"/>
      <point x="238" y="769"/>
      <point x="273" y="734"/>
      <point x="273" y="690" type="curve" smooth="yes"/>
      <point x="273" y="646"/>
      <point x="238" y="610"/>
    </contour>
    <contour>
      <point x="193" y="624" type="curve" smooth="yes"/>
      <point x="230" y="624"/>
      <point x="259" y="653"/>
      <point x="259" y="690" type="curve" smooth="yes"/>
      <point x="259" y="727"/>
      <point x="230" y="755"/>
      <point x="193" y="755" type="curve" smooth="yes"/>
      <point x="156" y="755"/>
      <point x="128" y="727"/>
      <point x="128" y="690" type="curve" smooth="yes"/>
      <point x="128" y="653"/>
      <point x="156" y="624"/>
    </contour>
  </outline>
</glyph>
<glyph name="ogonek" format="1">
  <advance width="386"/>
  <unicode hex="02DB"/>
  <outline>
    <contour>
      <point x="200" y="-192" type="curve" smooth="yes"/>
      <point x="154" y="-192"/>
      <point x="126" y="-163"/>
      <point x="126" y="-118" type="curve" smooth="yes"/>
      <point x="126" y="-72"/>
      <point x="158" y="-30"/>
      <point x="195" y="0" type="curve"/>
      <point x="215" y="0" type="line"/>
      <point x="173" y="-33"/>
      <point x="143" y="-74"/>
      <point x="143" y="-118" type="curve" smooth="yes"/>
      <point x="143" y="-153"/>
      <point x="164" y="-176"/>
      <point x="201" y="-176" type="curve" smooth="yes"/>
      <point x="234" y="-176"/>
      <point x="262" y="-160"/>
      <point x="286" y="-141" type="curve"/>
      <point x="294" y="-153" type="line"/>
      <point x="271" y="-171"/>
      <point x="237" y="-192"/>
    </contour>
  </outline>
</glyph>
<glyph name="tilde" format="1">
  <advance width="379"/>
  <unicode hex="02DC"/>
  <outline>
    <contour>
      <point x="248" y="602" type="curve" smooth="yes"/>
      <point x="194" y="602"/>
      <point x="171" y="683"/>
      <point x="129" y="683" type="curve" smooth="yes"/>
      <point x="101" y="683"/>
      <point x="85" y="653"/>
      <point x="83" y="606" type="curve"/>
      <point x="66" y="606" type="line"/>
      <point x="68" y="665"/>
      <point x="94" y="699"/>
      <point x="129" y="699" type="curve" smooth="yes"/>
      <point x="182" y="699"/>
      <point x="205" y="618"/>
      <point x="248" y="618" type="curve" smooth="yes"/>
      <point x="275" y="618"/>
      <point x="293" y="646"/>
      <point x="296" y="697" type="curve"/>
      <point x="313" y="697" type="line"/>
      <point x="310" y="634"/>
      <point x="283" y="602"/>
    </contour>
  </outline>
</glyph>
<glyph name="hungarumlaut" format="1">
  <advance width="386"/>
  <unicode hex="02DD"/>
  <outline>
    <contour>
      <point x="201" y="598" type="line"/>
      <point x="288" y="750" type="line"/>
      <point x="312" y="750" type="line"/>
      <point x="216" y="598" type="line"/>
    </contour>
    <contour>
      <point x="80" y="598" type="line"/>
      <point x="167" y="750" type="line"/>
      <point x="192" y="750" type="line"/>
      <point x="95" y="598" type="line"/>
    </contour>
  </outline>
</glyph>
<glyph name="endash" format="1">
  <advance width="313"/>
  <unicode hex="2013"/>
  <outline>
    <contour>
      <point x="35" y="354" type="line"/>
      <point x="35" y="373" type="line"/>
      <point x="278" y="373" type="line"/>
      <point x="278" y="354" type="line"/>
    </contour>
  </outline>
</glyph>
<glyph name="emdash" format="1">
  <advance width="439"/>
  <unicode hex="2014"/>
  <outline>
    <contour>
      <point x="35" y="354" type="line"/>
      <point x="35" y="373" type="line"/>
      <point x="404" y="373" type="line"/>
      <point x="404" y="354" type="line"/>
    </contour>
  </outline>
</glyph>
<glyph name="quoteleft" format="1">
  <advance width="127"/>
  <unicode hex="2018"/>
  <unicode hex="02BB"/>
  <outline>
    <contour>
      <point x="41" y="541" type="line"/>
      <point x="70" y="700" type="line"/>
      <point x="83" y="700" type="line"/>
      <point x="65" y="541" type="line"/>
    </contour>
  </outline>
</glyph>
<glyph name="quoteright" format="1">
  <advance width="127"/>
  <unicode hex="2019"/>
  <unicode hex="02BC"/>
  <outline>
    <contour>
      <point x="44" y="541" type="line"/>
      <point x="62" y="700" type="line"/>
      <point x="85" y="700" type="line"/>
      <point x="57" y="541" type="line"/>
    </contour>
  </outline>
</glyph>
<glyph name="quotesinglbase" format="1">
  <advance width="127"/>
  <unicode hex="201A"/>
  <outline>
    <contour>
      <point x="37" y="-92" type="line"/>
      <point x="56" y="67" type="line"/>
      <point x="79" y="67" type="line"/>
      <point x="51" y="-92" type="line"/>
    </contour>
  </outline>
</glyph>
<glyph name="quotedblleft" format="1">
  <advance width="244"/>
  <unicode hex="201C"/>
  <outline>
    <contour>
      <point x="159" y="541" type="line"/>
      <point x="188" y="700" type="line"/>
      <point x="201" y="700" type="line"/>
      <point x="182" y="541" type="line"/>
    </contour>
    <contour>
      <point x="41" y="541" type="line"/>
      <point x="70" y="700" type="line"/>
      <point x="83" y="700" type="line"/>
      <point x="65" y="541" type="line"/>
    </contour>
  </outline>
</glyph>
<glyph name="quotedblright" format="1">
  <advance width="244"/>
  <unicode hex="201D"/>
  <outline>
    <contour>
      <point x="161" y="541" type="line"/>
      <point x="180" y="700" type="line"/>
      <point x="203" y="700" type="line"/>
      <point x="174" y="541" type="line"/>
    </contour>
    <contour>
      <point x="44" y="541" type="line"/>
      <point x="62" y="700" type="line"/>
      <point x="85" y="700" type="line"/>
      <point x="57" y="541" type="line"/>
    </contour>
  </outline>
</glyph>
<glyph name="quotedblbase" format="1">
  <advance width="279"/>
  <unicode hex="201E"/>
  <outline>
    <contour>
      <point x="190" y="-92" type="line"/>
      <point x="208" y="67" type="line"/>
      <point x="232" y="67" type="line"/>
      <point x="203" y="-92" type="line"/>
    </contour>
    <contour>
      <point x="37" y="-92" type="line"/>
      <point x="56" y="67" type="line"/>
      <point x="79" y="67" type="line"/>
      <point x="51" y="-92" type="line"/>
    </contour>
  </outline>
</glyph>
<glyph name="dagger" format="1">
  <advance width="362"/>
  <unicode hex="2020"/>
  <outline>
    <contour>
      <point x="172" y="-100" type="line"/>
      <point x="172" y="422" type="line"/>
      <point x="26" y="422" type="line"/>
      <point x="26" y="440" type="line"/>
      <point x="172" y="440" type="line"/>
      <point x="172" y="700" type="line"/>
      <point x="190" y="700" type="line"/>
      <point x="190" y="440" type="line"/>
      <point x="336" y="440" type="line"/>
      <point x="336" y="422" type="line"/>
      <point x="190" y="422" type="line"/>
      <point x="190" y="-100" type="line"/>
    </contour>
  </outline>
</glyph>
<glyph name="daggerdbl" format="1">
  <advance width="362"/>
  <unicode hex="2021"/>
  <outline>
    <contour>
      <point x="172" y="-100" type="line"/>
      <point x="172" y="159" type="line"/>
      <point x="28" y="159" type="line"/>
      <point x="28" y="177" type="line"/>
      <point x="172" y="177" type="line"/>
      <point x="172" y="422" type="line"/>
      <point x="28" y="422" type="line"/>
      <point x="28" y="440" type="line"/>
      <point x="172" y="440" type="line"/>
      <point x="172" y="700" type="line"/>
      <point x="190" y="700" type="line"/>
      <point x="190" y="440" type="line"/>
      <point x="333" y="440" type="line"/>
      <point x="333" y="422" type="line"/>
      <point x="190" y="422" type="line"/>
      <point x="190" y="177" type="line"/>
      <point x="333" y="177" type="line"/>
      <point x="333" y="159" type="line"/>
      <point x="190" y="159" type="line"/>
      <point x="190" y="-100" type="line"/>
    </contour>
  </outline>
</glyph>
<glyph name="ellipsis" format="1">
  <advance width="384"/>
  <unicode hex="2026"/>
  <outline>
    <contour>
      <point x="322" y="-3" type="curve" smooth="yes"/>
      <point x="309" y="-3"/>
      <point x="299" y="7"/>
      <point x="299" y="20" type="curve" smooth="yes"/>
      <point x="299" y="33"/>
      <point x="309" y="44"/>
      <point x="322" y="44" type="curve" smooth="yes"/>
      <point x="334" y="44"/>
      <point x="345" y="33"/>
      <point x="345" y="20" type="curve" smooth="yes"/>
      <point x="345" y="7"/>
      <point x="334" y="-3"/>
    </contour>
    <contour>
      <point x="192" y="-3" type="curve" smooth="yes"/>
      <point x="179" y="-3"/>
      <point x="169" y="7"/>
      <point x="169" y="20" type="curve" smooth="yes"/>
      <point x="169" y="33"/>
      <point x="179" y="44"/>
      <point x="192" y="44" type="curve" smooth="yes"/>
      <point x="204" y="44"/>
      <point x="215" y="33"/>
      <point x="215" y="20" type="curve" smooth="yes"/>
      <point x="215" y="7"/>
      <point x="204" y="-3"/>
    </contour>
    <contour>
      <point x="62" y="-3" type="curve" smooth="yes"/>
      <point x="49" y="-3"/>
      <point x="39" y="7"/>
      <point x="39" y="20" type="curve" smooth="yes"/>
      <point x="39" y="33"/>
      <point x="49" y="44"/>
      <point x="62" y="44" type="curve" smooth="yes"/>
      <point x="74" y="44"/>
      <point x="85" y="33"/>
      <point x="85" y="20" type="curve" smooth="yes"/>
      <point x="85" y="7"/>
      <point x="74" y="-3"/>
    </contour>
  </outline>
</glyph>
<glyph name="perthousand" format="1">
  <advance width="891"/>
  <unicode hex="2030"/>
  <outline>
    <contour>
      <point x="147" y="317" type="curve" smooth="yes"/>
      <point x="80" y="317"/>
      <point x="41" y="388"/>
      <point x="41" y="512" type="curve" smooth="yes"/>
      <point x="41" y="636"/>
      <point x="81" y="709"/>
      <point x="148" y="709" type="curve" smooth="yes"/>
      <point x="215" y="709"/>
      <point x="255" y="636"/>
      <point x="255" y="512" type="curve" smooth="yes"/>
      <point x="255" y="388"/>
      <point x="214" y="317"/>
    </contour>
    <contour>
      <point x="126" y="0" type="line"/>
      <point x="472" y="700" type="line"/>
      <point x="491" y="700" type="line"/>
      <point x="145" y="0" type="line"/>
    </contour>
    <contour>
      <point x="742" y="-9" type="curve" smooth="yes"/>
      <point x="675" y="-9"/>
      <point x="636" y="62"/>
      <point x="636" y="186" type="curve" smooth="yes"/>
      <point x="636" y="310"/>
      <point x="676" y="383"/>
      <point x="743" y="383" type="curve" smooth="yes"/>
      <point x="810" y="383"/>
      <point x="850" y="310"/>
      <point x="850" y="186" type="curve" smooth="yes"/>
      <point x="850" y="62"/>
      <point x="809" y="-9"/>
    </contour>
    <contour>
      <point x="468" y="-9" type="curve" smooth="yes"/>
      <point x="401" y="-9"/>
      <point x="362" y="62"/>
      <point x="362" y="186" type="curve" smooth="yes"/>
      <point x="362" y="310"/>
      <point x="402" y="383"/>
      <point x="469" y="383" type="curve" smooth="yes"/>
      <point x="536" y="383"/>
      <point x="576" y="310"/>
      <point x="576" y="186" type="curve" smooth="yes"/>
      <point x="576" y="62"/>
      <point x="535" y="-9"/>
    </contour>
    <contour>
      <point x="147" y="334" type="curve" smooth="yes"/>
      <point x="205" y="334"/>
      <point x="237" y="402"/>
      <point x="237" y="512" type="curve" smooth="yes"/>
      <point x="237" y="622"/>
      <point x="206" y="692"/>
      <point x="148" y="692" type="curve" smooth="yes"/>
      <point x="90" y="692"/>
      <point x="59" y="622"/>
      <point x="59" y="512" type="curve" smooth="yes"/>
      <point x="59" y="402"/>
      <point x="89" y="334"/>
    </contour>
    <contour>
      <point x="742" y="8" type="curve" smooth="yes"/>
      <point x="800" y="8"/>
      <point x="832" y="76"/>
      <point x="832" y="186" type="curve" smooth="yes"/>
      <point x="832" y="296"/>
      <point x="801" y="366"/>
      <point x="743" y="366" type="curve" smooth="yes"/>
      <point x="685" y="366"/>
      <point x="654" y="296"/>
      <point x="654" y="186" type="curve" smooth="yes"/>
      <point x="654" y="76"/>
      <point x="684" y="8"/>
    </contour>
    <contour>
      <point x="468" y="8" type="curve" smooth="yes"/>
      <point x="526" y="8"/>
      <point x="558" y="76"/>
      <point x="558" y="186" type="curve" smooth="yes"/>
      <point x="558" y="296"/>
      <point x="527" y="366"/>
      <point x="469" y="366" type="curve" smooth="yes"/>
      <point x="411" y="366"/>
      <point x="380" y="296"/>
      <point x="380" y="186" type="curve" smooth="yes"/>
      <point x="380" y="76"/>
      <point x="410" y="8"/>
    </contour>
  </outline>
</glyph>
<glyph name="guilsinglleft" format="1">
  <advance width="245"/>
  <unicode hex="2039"/>
  <outline>
    <contour>
      <point x="182" y="0" type="line"/>
      <point x="27" y="261" type="line"/>
      <point x="28" y="264" type="line"/>
      <point x="182" y="525" type="line"/>
      <point x="204" y="525" type="line"/>
      <point x="48" y="262" type="line"/>
      <point x="204" y="0" type="line"/>
    </contour>
  </outline>
</glyph>
<glyph name="guilsinglright" format="1">
  <advance width="245"/>
  <unicode hex="203A"/>
  <outline>
    <contour>
      <point x="41" y="0" type="line"/>
      <point x="196" y="262" type="line"/>
      <point x="41" y="525" type="line"/>
      <point x="63" y="525" type="line"/>
      <point x="216" y="264" type="line"/>
      <point x="217" y="261" type="line"/>
      <point x="63" y="0" type="line"/>
    </contour>
  </outline>
</glyph>
<glyph name="fraction" format="1">
  <advance width="317"/>
  <unicode hex="2044"/>
  <outline>
    <contour>
      <point x="-31" y="0" type="line"/>
      <point x="327" y="700" type="line"/>
      <point x="348" y="700" type="line"/>
      <point x="-10" y="0" type="line"/>
    </contour>
  </outline>
</glyph>
<glyph name="Euro" format="1">
  <advance width="415"/>
  <unicode hex="20AC"/>
  <outline>
    <contour>
      <point x="76" y="423" type="curve"/>
      <point x="244" y="423" type="line"/>
      <point x="244" y="405" type="line"/>
      <point x="75" y="405" type="line"/>
      <point x="75" y="388"/>
      <point x="74" y="369"/>
      <point x="74" y="350" type="curve" smooth="yes"/>
      <point x="74" y="333"/>
      <point x="74" y="316"/>
      <point x="75" y="300" type="curve"/>
      <point x="244" y="300" type="line"/>
      <point x="244" y="282" type="line"/>
      <point x="76" y="282" type="line"/>
      <point x="87" y="95"/>
      <point x="144" y="9"/>
      <point x="230" y="9" type="curve" smooth="yes"/>
      <point x="281" y="9"/>
      <point x="317" y="44"/>
      <point x="345" y="134" type="curve"/>
      <point x="362" y="127" type="line"/>
      <point x="334" y="31"/>
      <point x="291" y="-9"/>
      <point x="229" y="-9" type="curve" smooth="yes"/>
      <point x="121" y="-9"/>
      <point x="54" y="103"/>
      <point x="54" y="350" type="curve" smooth="yes"/>
      <point x="54" y="596"/>
      <point x="126" y="709"/>
      <point x="230" y="709" type="curve" smooth="yes"/>
      <point x="293" y="709"/>
      <point x="332" y="669"/>
      <point x="358" y="575" type="curve"/>
      <point x="340" y="569" type="line"/>
      <point x="314" y="657"/>
      <point x="281" y="691"/>
      <point x="229" y="691" type="curve" smooth="yes"/>
      <point x="151" y="691"/>
      <point x="89" y="607"/>
    </contour>
  </outline>
</glyph>
<glyph name="uni2117" format="1">
  <advance width="596"/>
  <unicode hex="2117"/>
  <outline>
    <contour>
      <point x="297" y="-9" type="curve" smooth="yes"/>
      <point x="142" y="-9"/>
      <point x="45" y="145"/>
      <point x="45" y="351" type="curve" smooth="yes"/>
      <point x="45" y="557"/>
      <point x="142" y="712"/>
      <point x="297" y="712" type="curve" smooth="yes"/>
      <point x="453" y="712"/>
      <point x="551" y="557"/>
      <point x="551" y="351" type="curve" smooth="yes"/>
      <point x="551" y="145"/>
      <point x="453" y="-9"/>
    </contour>
    <contour>
      <point x="297" y="4" type="curve" smooth="yes"/>
      <point x="446" y="4"/>
      <point x="536" y="153"/>
      <point x="536" y="351" type="curve" smooth="yes"/>
      <point x="536" y="548"/>
      <point x="446" y="698"/>
      <point x="297" y="698" type="curve" smooth="yes"/>
      <point x="149" y="698"/>
      <point x="59" y="548"/>
      <point x="59" y="351" type="curve" smooth="yes"/>
      <point x="59" y="153"/>
      <point x="149" y="4"/>
    </contour>
    <contour>
      <point x="230" y="145" type="line"/>
      <point x="230" y="547" type="line"/>
      <point x="295" y="547" type="line" smooth="yes"/>
      <point x="359" y="547"/>
      <point x="402" y="520"/>
      <point x="402" y="442" type="curve" smooth="yes"/>
      <point x="402" y="365"/>
      <point x="359" y="333"/>
      <point x="292" y="333" type="curve" smooth="yes"/>
      <point x="244" y="333" type="line"/>
      <point x="244" y="145" type="line"/>
    </contour>
    <contour>
      <point x="244" y="347" type="line"/>
      <point x="292" y="347" type="line" smooth="yes"/>
      <point x="353" y="347"/>
      <point x="387" y="375"/>
      <point x="387" y="442" type="curve" smooth="yes"/>
      <point x="387" y="511"/>
      <point x="352" y="533"/>
      <point x="295" y="533" type="curve" smooth="yes"/>
      <point x="244" y="533" type="line"/>
    </contour>
  </outline>
</glyph>
<glyph name="trademark" format="1">
  <advance width="548"/>
  <unicode hex="2122"/>
  <outline>
    <contour>
      <point x="106" y="300" type="line"/>
      <point x="106" y="687" type="line"/>
      <point x="14" y="687" type="line"/>
      <point x="14" y="700" type="line"/>
      <point x="209" y="700" type="line"/>
      <point x="209" y="687" type="line"/>
      <point x="119" y="687" type="line"/>
      <point x="119" y="300" type="line"/>
    </contour>
    <contour>
      <point x="388" y="291" type="line"/>
      <point x="281" y="663" type="line"/>
      <point x="281" y="300" type="line"/>
      <point x="268" y="300" type="line"/>
      <point x="268" y="700" type="line"/>
      <point x="283" y="700" type="line"/>
      <point x="388" y="334" type="line"/>
      <point x="493" y="700" type="line"/>
      <point x="508" y="700" type="line"/>
      <point x="508" y="300" type="line"/>
      <point x="495" y="300" type="line"/>
      <point x="495" y="664" type="line"/>
    </contour>
  </outline>
</glyph>
<glyph name="arrowleft" format="1">
  <advance width="530"/>
  <unicode hex="2190"/>
  <outline>
    <contour>
      <point x="174" y="244" type="curve"/>
      <point x="44" y="350" type="line"/>
      <point x="174" y="456" type="line"/>
      <point x="176" y="457"/>
      <point x="180" y="452"/>
      <point x="179" y="451" type="curve" smooth="yes"/>
      <point x="90" y="359" type="line"/>
      <point x="465" y="359" type="line"/>
      <point x="465" y="341" type="line"/>
      <point x="90" y="341" type="line"/>
      <point x="179" y="248" type="line" smooth="yes"/>
      <point x="180" y="247"/>
      <point x="176" y="242"/>
    </contour>
  </outline>
</glyph>
<glyph name="arrowup" format="1">
  <advance width="366"/>
  <unicode hex="2191"/>
  <outline>
    <contour>
      <point x="173" y="0" type="line"/>
      <point x="173" y="669" type="line"/>
      <point x="81" y="580" type="line"/>
      <point x="79" y="579"/>
      <point x="74" y="583"/>
      <point x="76" y="585" type="curve"/>
      <point x="183" y="715" type="line"/>
      <point x="290" y="585" type="line"/>
      <point x="292" y="583"/>
      <point x="287" y="579"/>
      <point x="285" y="580" type="curve"/>
      <point x="193" y="669" type="line"/>
      <point x="193" y="0" type="line"/>
    </contour>
  </outline>
</glyph>
<glyph name="arrowright" format="1">
  <advance width="530"/>
  <unicode hex="2192"/>
  <outline>
    <contour>
      <point x="356" y="244" type="line"/>
      <point x="354" y="242"/>
      <point x="350" y="246"/>
      <point x="351" y="248" type="curve"/>
      <point x="440" y="341" type="line"/>
      <point x="65" y="341" type="line"/>
      <point x="65" y="359" type="line"/>
      <point x="440" y="359" type="line"/>
      <point x="351" y="451" type="line"/>
      <point x="350" y="453"/>
      <point x="354" y="457"/>
      <point x="356" y="456" type="curve"/>
      <point x="486" y="350" type="line"/>
    </contour>
  </outline>
</glyph>
<glyph name="arrowdown" format="1">
  <advance width="366"/>
  <unicode hex="2193"/>
  <outline>
    <contour>
      <point x="183" y="-15" type="line"/>
      <point x="76" y="115" type="line"/>
      <point x="74" y="117"/>
      <point x="79" y="121"/>
      <point x="81" y="120" type="curve"/>
      <point x="173" y="31" type="line"/>
      <point x="173" y="700" type="line"/>
      <point x="193" y="700" type="line"/>
      <point x="193" y="31" type="line"/>
      <point x="285" y="120" type="line"/>
      <point x="287" y="121"/>
      <point x="292" y="117"/>
      <point x="290" y="115" type="curve"/>
    </contour>
  </outline>
</glyph>
<glyph name="arrowboth" format="1">
  <advance width="654"/>
  <unicode hex="2194"/>
  <outline>
    <contour>
      <point x="158" y="245" type="curve"/>
      <point x="28" y="350" type="line"/>
      <point x="158" y="456" type="line"/>
      <point x="160" y="457"/>
      <point x="164" y="453"/>
      <point x="163" y="451" type="curve"/>
      <point x="74" y="359" type="line"/>
      <point x="581" y="359" type="line"/>
      <point x="492" y="451" type="line"/>
      <point x="491" y="453"/>
      <point x="495" y="457"/>
      <point x="497" y="456" type="curve"/>
      <point x="626" y="350" type="line"/>
      <point x="497" y="245" type="line"/>
      <point x="495" y="243"/>
      <point x="491" y="247"/>
      <point x="492" y="249" type="curve"/>
      <point x="581" y="342" type="line"/>
      <point x="74" y="342" type="line"/>
      <point x="163" y="249" type="line"/>
      <point x="164" y="247"/>
      <point x="160" y="243"/>
    </contour>
  </outline>
</glyph>
<glyph name="arrowupdn" format="1">
  <advance width="366"/>
  <unicode hex="2195"/>
  <outline>
    <contour>
      <point x="183" y="-15" type="line"/>
      <point x="76" y="115" type="line"/>
      <point x="74" y="117"/>
      <point x="79" y="121"/>
      <point x="81" y="120" type="curve"/>
      <point x="173" y="31" type="line"/>
      <point x="173" y="669" type="line"/>
      <point x="81" y="580" type="line"/>
      <point x="79" y="579"/>
      <point x="74" y="583"/>
      <point x="76" y="585" type="curve"/>
      <point x="183" y="715" type="line"/>
      <point x="290" y="585" type="line"/>
      <point x="292" y="583"/>
      <point x="287" y="579"/>
      <point x="285" y="580" type="curve"/>
      <point x="193" y="669" type="line"/>
      <point x="193" y="31" type="line"/>
      <point x="285" y="120" type="line"/>
      <point x="287" y="121"/>
      <point x="292" y="117"/>
      <point x="290" y="115" type="curve"/>
    </contour>
  </outline>
</glyph>
<glyph name="radical" format="1">
  <advance width="388"/>
  <unicode hex="221A"/>
  <outline>
    <contour>
      <point x="155" y="-2" type="line"/>
      <point x="27" y="339" type="line"/>
      <point x="47" y="339" type="line"/>
      <point x="163" y="29" type="line"/>
      <point x="343" y="700" type="line"/>
      <point x="363" y="700" type="line"/>
      <point x="174" y="-2" type="line"/>
    </contour>
  </outline>
</glyph>
<glyph name="apple" format="1">
  <advance width="644"/>
  <unicode hex="F8FF"/>
  <outline>
    <contour>
      <point x="323" y="-15" type="line"/>
      <point x="215" y="112" type="line" smooth="yes"/>
      <point x="213" y="114"/>
      <point x="218" y="117"/>
      <point x="219" y="116" type="curve" smooth="yes"/>
      <point x="313" y="28" type="line"/>
      <point x="313" y="341" type="line"/>
      <point x="71" y="341" type="line"/>
      <point x="160" y="247" type="line"/>
      <point x="161" y="245"/>
      <point x="158" y="241"/>
      <point x="156" y="243" type="curve"/>
      <point x="28" y="350" type="line"/>
      <point x="156" y="457" type="line"/>
      <point x="158" y="458"/>
      <point x="161" y="455"/>
      <point x="160" y="452" type="curve"/>
      <point x="71" y="359" type="line"/>
      <point x="313" y="359" type="line"/>
      <point x="313" y="672" type="line"/>
      <point x="219" y="584" type="line" smooth="yes"/>
      <point x="218" y="583"/>
      <point x="213" y="586"/>
      <point x="215" y="588" type="curve" smooth="yes"/>
      <point x="323" y="715" type="line"/>
      <point x="431" y="588" type="line"/>
      <point x="432" y="586"/>
      <point x="429" y="583"/>
      <point x="426" y="584" type="curve"/>
      <point x="332" y="672" type="line"/>
      <point x="332" y="359" type="line"/>
      <point x="573" y="359" type="line"/>
      <point x="485" y="452" type="line"/>
      <point x="484" y="455"/>
      <point x="487" y="458"/>
      <point x="489" y="457" type="curve"/>
      <point x="616" y="350" type="line"/>
      <point x="489" y="243" type="line" smooth="yes"/>
      <point x="487" y="241"/>
      <point x="484" y="245"/>
      <point x="485" y="247" type="curve"/>
      <point x="573" y="341" type="line"/>
      <point x="332" y="341" type="line"/>
      <point x="332" y="28" type="line"/>
      <point x="426" y="116" type="line"/>
      <point x="429" y="117"/>
      <point x="432" y="114"/>
      <point x="431" y="112" type="curve"/>
    </contour>
  </outline>
</glyph>
<glyph name="fi" format="1">
  <advance width="384"/>
  <unicode hex="FB01"/>
  <outline>
    <contour>
      <point x="304" y="668" type="curve" smooth="yes"/>
      <point x="292" y="668"/>
      <point x="284" y="677"/>
      <point x="284" y="687" type="curve" smooth="yes"/>
      <point x="284" y="698"/>
      <point x="292" y="706"/>
      <point x="304" y="706" type="curve" smooth="yes"/>
      <point x="313" y="706"/>
      <point x="322" y="698"/>
      <point x="322" y="687" type="curve" smooth="yes"/>
      <point x="322" y="677"/>
      <point x="313" y="668"/>
    </contour>
    <contour>
      <point x="88" y="0" type="line"/>
      <point x="88" y="508" type="line"/>
      <point x="27" y="508" type="line"/>
      <point x="27" y="525" type="line"/>
      <point x="88" y="525" type="line"/>
      <point x="88" y="625" type="line" smooth="yes"/>
      <point x="88" y="698"/>
      <point x="122" y="725"/>
      <point x="170" y="725" type="curve" smooth="yes"/>
      <point x="192" y="725"/>
      <point x="205" y="722"/>
      <point x="218" y="718" type="curve"/>
      <point x="218" y="699" type="line"/>
      <point x="208" y="703"/>
      <point x="190" y="707"/>
      <point x="172" y="707" type="curve" smooth="yes"/>
      <point x="132" y="707"/>
      <point x="107" y="686"/>
      <point x="107" y="627" type="curve" smooth="yes"/>
      <point x="107" y="525" type="line"/>
      <point x="204" y="525" type="line"/>
      <point x="204" y="508" type="line"/>
      <point x="107" y="508" type="line"/>
      <point x="107" y="0" type="line"/>
    </contour>
    <contour>
      <point x="294" y="0" type="line"/>
      <point x="294" y="525" type="line"/>
      <point x="313" y="525" type="line"/>
      <point x="313" y="0" type="line"/>
    </contour>
  </outline>
</glyph>
<glyph name="bullet" format="1">
  <advance width="223"/>
  <outline>
    <contour>
      <point x="111" y="321" type="curve" smooth="yes"/>
      <point x="86" y="321"/>
      <point x="67" y="341"/>
      <point x="67" y="366" type="curve" smooth="yes"/>
      <point x="67" y="391"/>
      <point x="86" y="412"/>
      <point x="111" y="412" type="curve" smooth="yes"/>
      <point x="136" y="412"/>
      <point x="156" y="391"/>
      <point x="156" y="366" type="curve" smooth="yes"/>
      <point x="156" y="341"/>
      <point x="136" y="321"/>
    </contour>
  </outline>
</glyph>
<glyph name="macron" format="1">
  <advance width="386"/>
  <outline>
    <contour>
      <point x="76" y="635" type="line"/>
      <point x="76" y="652" type="line"/>
      <point x="309" y="652" type="line"/>
      <point x="309" y="635" type="line"/>
    </contour>
  </outline>
</glyph>
<glyph name="registered" format="1">
  <advance width="596"/>
  <outline>
    <contour>
      <point x="297" y="-9" type="curve" smooth="yes"/>
      <point x="142" y="-9"/>
      <point x="45" y="145"/>
      <point x="45" y="351" type="curve" smooth="yes"/>
      <point x="45" y="557"/>
      <point x="142" y="712"/>
      <point x="297" y="712" type="curve" smooth="yes"/>
      <point x="453" y="712"/>
      <point x="551" y="557"/>
      <point x="551" y="351" type="curve" smooth="yes"/>
      <point x="551" y="145"/>
      <point x="453" y="-9"/>
    </contour>
    <contour>
      <point x="297" y="4" type="curve" smooth="yes"/>
      <point x="446" y="4"/>
      <point x="536" y="153"/>
      <point x="536" y="351" type="curve" smooth="yes"/>
      <point x="536" y="548"/>
      <point x="446" y="698"/>
      <point x="297" y="698" type="curve" smooth="yes"/>
      <point x="149" y="698"/>
      <point x="59" y="548"/>
      <point x="59" y="351" type="curve" smooth="yes"/>
      <point x="59" y="153"/>
      <point x="149" y="4"/>
    </contour>
    <contour>
      <point x="220" y="157" type="line"/>
      <point x="220" y="558" type="line"/>
      <point x="285" y="558" type="line" smooth="yes"/>
      <point x="349" y="558"/>
      <point x="393" y="534"/>
      <point x="393" y="457" type="curve" smooth="yes"/>
      <point x="393" y="398"/>
      <point x="367" y="366"/>
      <point x="322" y="355" type="curve"/>
      <point x="394" y="157" type="line"/>
      <point x="377" y="157" type="line"/>
      <point x="306" y="352" type="line"/>
      <point x="299" y="351"/>
      <point x="288" y="350"/>
      <point x="278" y="350" type="curve" smooth="yes"/>
      <point x="275" y="350"/>
      <point x="236" y="350"/>
      <point x="235" y="350" type="curve"/>
      <point x="235" y="157" type="line"/>
    </contour>
    <contour>
      <point x="235" y="364" type="line"/>
      <point x="282" y="364" type="line" smooth="yes"/>
      <point x="344" y="364"/>
      <point x="378" y="390"/>
      <point x="378" y="457" type="curve" smooth="yes"/>
      <point x="378" y="524"/>
      <point x="343" y="544"/>
      <point x="285" y="544" type="curve" smooth="yes"/>
      <point x="235" y="544" type="line"/>
    </contour>
  </outline>
</glyph>
